<svg width="203.000000" height="24.000000" viewBox="0 0 203 24" fill="none" xmlns="http://www.w3.org/2000/svg" xmlns:xlink="http://www.w3.org/1999/xlink">
	<desc>
			Created with Pixso.
	</desc>
	<defs/>
	<path id="coffeeroasters" d="M10.6593 23.2397C9.68141 23.7135 8.5405 23.9504 7.23661 23.9504Q5.29676 23.9504 3.73624 23.181L3.73521 23.1805Q3.6311 23.1292 3.52866 23.0744Q2.86098 22.7173 2.30838 22.2297Q1.50531 21.5212 0.94532 20.5372Q0 18.876 0 16.4959Q0 14.3689 0.845131 12.6598Q0.912888 12.5228 0.986069 12.3884Q1.4992 11.4466 2.22198 10.7106Q2.88815 10.0323 3.7324 9.52892Q3.81615 9.47899 3.90123 9.43142Q5.60432 8.47934 7.83966 8.47934Q9.8444 8.47934 11.2216 9.07438Q12.5989 9.66942 13.3242 10.686Q13.6752 11.178 13.8564 11.7261Q14.0495 12.3105 14.0495 12.9587Q14.0495 14.0671 13.517 14.7748L13.5169 14.7749Q13.4141 14.9114 13.2916 15.0331Q13.1584 15.1652 13.0083 15.2742Q12.3045 15.7851 11.2298 15.7851Q10.0858 15.7851 9.4135 15.222Q9.30037 15.1272 9.2006 15.0165C8.73881 14.5041 8.50791 13.8017 8.50791 12.9091L8.50791 11.8512Q8.5079 11.0413 8.21453 10.6281C8.01895 10.3526 7.74187 10.2149 7.3833 10.2149Q7.23239 10.2149 7.08981 10.2494Q6.72426 10.3378 6.41353 10.6529C6.12559 10.9449 5.90284 11.3829 5.74529 11.9669Q5.50895 12.843 5.50895 14.1322C5.50895 15.3664 5.69096 16.4022 6.05495 17.2397C6.41896 18.0771 6.91607 18.7052 7.54629 19.124Q7.84876 19.3249 8.17793 19.4616Q8.87753 19.7521 9.69771 19.7521C10.5018 19.7521 11.1755 19.6336 11.7188 19.3967C12.262 19.1598 12.6804 18.7603 12.9737 18.1983C13.1367 18.0441 13.2644 17.9449 13.3568 17.9008C13.4491 17.8568 13.5388 17.8347 13.6257 17.8347C13.7344 17.8457 13.824 17.8981 13.8946 17.9917C13.9558 18.0729 13.9864 18.1934 13.9864 18.3532C13.9864 18.3778 13.9857 18.4033 13.9843 18.4298C13.8973 19.5096 13.5659 20.4628 12.99 21.2893C12.4142 22.1157 11.6373 22.7658 10.6593 23.2397ZM27.2269 22.9091C26.0045 23.5813 24.5838 23.9174 22.9648 23.9174Q20.6015 23.9174 18.8168 22.9339Q17.8107 22.3794 17.0557 21.586Q16.4716 20.972 16.0379 20.2149Q16.0056 20.1584 15.9743 20.1014Q15.0437 18.4052 15.0437 16.1983Q15.0437 14.5693 15.6252 13.1844Q15.8225 12.7145 16.0868 12.2727C16.7822 11.1102 17.7438 10.1873 18.9717 9.50413Q19.0118 9.48179 19.0522 9.45994Q20.8656 8.47934 23.2093 8.47934Q25.5889 8.47934 27.3655 9.47107C28.5499 10.1322 29.4734 11.0468 30.1362 12.2149C30.7991 13.3829 31.1305 14.7328 31.1305 16.2645C31.1305 17.719 30.7855 19.022 30.0955 20.1736C29.4055 21.3251 28.4493 22.2369 27.2269 22.9091ZM24.2035 22.1983C23.8667 22.2645 23.538 22.1157 23.2175 21.7521C22.8969 21.3884 22.5927 20.7769 22.3047 19.9174Q21.8728 18.6281 21.4817 16.5289C21.2317 15.1295 21.0905 13.978 21.0579 13.0744C21.0525 12.9238 21.0497 12.7793 21.0497 12.6409Q21.0497 11.6033 21.2535 11.0248C21.4165 10.562 21.6664 10.292 22.0032 10.2149C22.34 10.1488 22.6687 10.2975 22.9893 10.6612C23.3098 11.0248 23.6168 11.6364 23.9102 12.4959C24.2035 13.3554 24.4806 14.4848 24.7414 15.8843C25.0022 17.2837 25.1461 18.438 25.1733 19.3471C25.1771 19.4734 25.179 19.5953 25.179 19.713C25.179 20.4424 25.1064 21.0064 24.9614 21.405C24.793 21.8678 24.5404 22.1322 24.2035 22.1983ZM42.7514 22.8595C42.7514 23.3664 42.4961 23.6198 41.9854 23.6198L32.9885 23.6198C32.7712 23.6198 32.5946 23.5565 32.4588 23.4298C32.323 23.303 32.2551 23.124 32.2551 22.8926C32.2551 22.6942 32.3013 22.5344 32.3936 22.4132C32.486 22.292 32.6299 22.1928 32.8255 22.1157L33.5264 21.9008Q33.6559 21.8598 33.7573 21.782Q33.86 21.7032 33.9338 21.5868C34.0316 21.4325 34.0805 21.2121 34.0805 20.9256L34.0805 11.3719C34.0805 11.2176 34.0425 11.0882 33.9664 10.9835C33.8904 10.8788 33.7491 10.7824 33.5427 10.6942L32.5974 10.3802C32.3474 10.259 32.1682 10.1295 32.0595 9.99174Q32.0231 9.94557 31.9948 9.89487Q31.8965 9.71865 31.8965 9.4876C31.8965 9.28926 31.9644 9.12672 32.1002 9L32.1536 8.95545C32.2837 8.85843 32.4534 8.80992 32.6625 8.80992L34.0928 8.80992L34.0815 8.71333C34.051 8.52015 33.9746 8.33471 33.8523 8.15702C33.6894 7.92011 33.5046 7.65289 33.2982 7.35537Q32.9885 6.90909 32.744 6.28926Q32.4996 5.66942 32.4996 4.76033Q32.4996 3.3597 33.1133 2.32215Q33.4484 1.75573 33.9664 1.29752C34.9444 0.432507 36.3352 0 38.1389 0C39.3015 0 40.2659 0.187328 41.0319 0.561985C41.798 0.936638 42.3711 1.43526 42.7514 2.05785C43.1317 2.68044 43.3219 3.36088 43.3219 4.09917Q43.3219 5.35881 42.6925 6.01088Q42.6694 6.03477 42.6455 6.05785C42.1945 6.49311 41.616 6.71074 40.9097 6.71074C40.1273 6.71074 39.4971 6.4573 39.019 5.95041C38.5409 5.44353 38.3019 4.77135 38.3019 3.93388L38.3019 2.46281Q38.3019 1.8843 38.0737 1.61157C37.9216 1.42975 37.688 1.33884 37.3729 1.33884C36.9708 1.33884 36.6666 1.47659 36.4601 1.75207C36.2537 2.02755 36.1505 2.42424 36.1505 2.94215C36.1505 3.47107 36.2727 3.96694 36.5172 4.42975Q36.5206 4.43626 36.5241 4.44276Q36.8889 5.12962 37.4218 5.72727C37.7803 6.12948 38.1389 6.51515 38.4975 6.8843Q39.0353 7.43801 39.402 7.9752L39.4717 8.08256Q39.6698 8.40438 39.7358 8.72322L39.7507 8.80992L42.1647 8.80992Q42.5395 8.80992 42.7433 8.96694C42.8791 9.07162 42.947 9.23416 42.947 9.45454C42.947 9.78513 42.8058 10.0551 42.5232 10.2645C42.2407 10.4738 41.7952 10.5785 41.1868 10.5785L40.0295 10.5785L40.0295 20.876C40.0295 21.1846 40.0757 21.4215 40.1681 21.5868C40.2604 21.7521 40.4099 21.8512 40.6163 21.8843L42.018 22.0992C42.2679 22.1322 42.4526 22.2121 42.5721 22.3388C42.6917 22.4656 42.7514 22.6391 42.7514 22.8595ZM54.1279 22.8595C54.1279 23.3664 53.8726 23.6198 53.3619 23.6198L44.365 23.6198C44.1477 23.6198 43.9711 23.5565 43.8353 23.4298C43.6995 23.303 43.6316 23.124 43.6316 22.8926C43.6316 22.6942 43.6777 22.5344 43.7701 22.4132C43.8625 22.292 44.0064 22.1928 44.202 22.1157L44.9028 21.9008Q45.0324 21.8598 45.1338 21.782Q45.2365 21.7032 45.3103 21.5868C45.4081 21.4325 45.457 21.2121 45.457 20.9256L45.457 11.3719C45.457 11.2176 45.419 11.0882 45.3429 10.9835C45.2669 10.8788 45.1256 10.7824 44.9192 10.6942L43.9738 10.3802C43.7239 10.259 43.5446 10.1295 43.436 9.99174Q43.3996 9.94557 43.3713 9.89487Q43.273 9.71865 43.273 9.4876C43.273 9.28926 43.3409 9.12672 43.4767 9L43.5301 8.95545C43.6602 8.85843 43.8299 8.80992 44.039 8.80992L45.4692 8.80992L45.458 8.71333C45.4275 8.52015 45.3511 8.33471 45.2288 8.15702C45.0658 7.92011 44.8811 7.65289 44.6747 7.35537Q44.365 6.90909 44.1205 6.28926Q43.876 5.66942 43.876 4.76033Q43.876 3.3597 44.4898 2.32215Q44.8249 1.75573 45.3429 1.29752C46.3208 0.432507 47.7117 0 49.5154 0C50.678 0 51.6423 0.187328 52.4084 0.561985C53.1744 0.936638 53.7476 1.43526 54.1279 2.05785C54.5082 2.68044 54.6984 3.36088 54.6984 4.09917C54.6984 4.9697 54.4729 5.62259 54.022 6.05785C53.571 6.49311 52.9924 6.71074 52.2861 6.71074C51.5038 6.71074 50.8736 6.4573 50.3955 5.95041C49.9174 5.44353 49.6784 4.77135 49.6784 3.93388L49.6784 2.46281Q49.6784 1.8843 49.4502 1.61157C49.2981 1.42975 49.0645 1.33884 48.7493 1.33884C48.3473 1.33884 48.0431 1.47659 47.8366 1.75207C47.6302 2.02755 47.5269 2.42424 47.5269 2.94215C47.5269 3.47107 47.6492 3.96694 47.8937 4.42975Q47.8971 4.43622 47.9005 4.44268Q48.2654 5.12959 48.7982 5.72727C49.1568 6.12948 49.5154 6.51515 49.8739 6.8843Q50.4118 7.43801 50.7785 7.9752L50.8482 8.08256Q51.0462 8.40438 51.1122 8.72322L51.1271 8.80992L53.5412 8.80992Q53.916 8.80992 54.1198 8.96694C54.2556 9.07162 54.3235 9.23416 54.3235 9.45454C54.3235 9.78513 54.1822 10.0551 53.8997 10.2645C53.6172 10.4738 53.1717 10.5785 52.5632 10.5785L51.406 10.5785L51.406 20.876C51.406 21.1846 51.4522 21.4215 51.5446 21.5868C51.6369 21.7521 51.7863 21.8512 51.9928 21.8843L53.3945 22.0992C53.6444 22.1322 53.8291 22.2121 53.9486 22.3388C54.0681 22.4656 54.1279 22.6391 54.1279 22.8595ZM66.1237 23.1405C65.0697 23.6804 63.8528 23.9504 62.4728 23.9504C60.9516 23.9504 59.6151 23.6336 58.4633 23C57.3116 22.3664 56.4124 21.4793 55.7659 20.3388C55.1194 19.1983 54.7961 17.8788 54.7961 16.3802C54.7961 14.8044 55.1085 13.4242 55.7333 12.2397C56.3581 11.0551 57.2627 10.1322 58.4471 9.47107C59.6314 8.80992 61.0548 8.47934 62.7173 8.47934C64.1299 8.47934 65.3468 8.75758 66.3682 9.31405C67.3896 9.87052 68.1747 10.6253 68.7234 11.5785Q68.9516 11.9749 69.1165 12.3961Q69.5464 13.494 69.5464 14.7603C69.5464 15.2672 69.4106 15.6667 69.139 15.9587L69.0742 16.0235C68.8065 16.2723 68.4369 16.3967 67.9655 16.3967L60.5147 16.3967L60.5307 16.4729C60.7284 17.3804 61.0661 18.1071 61.5438 18.6529C62.3587 19.584 63.4453 20.0496 64.8035 20.0496C65.6728 20.0496 66.4416 19.8512 67.1098 19.4545C67.778 19.0578 68.2263 18.5069 68.4544 17.8017C68.5848 17.6584 68.7016 17.562 68.8049 17.5124C68.9081 17.4628 68.9977 17.438 69.0738 17.438C69.1824 17.438 69.2748 17.4821 69.3509 17.5702C69.4269 17.6584 69.465 17.8072 69.465 18.0165C69.465 19.0964 69.1716 20.0854 68.5848 20.9835C67.9981 21.8815 67.1777 22.6006 66.1237 23.1405ZM60.3447 15.0717Q60.3214 14.6914 60.3214 14.281C60.3214 13.2452 60.3975 12.4298 60.5496 11.8347C60.7017 11.2397 60.8973 10.8182 61.1363 10.5702C61.3754 10.3223 61.6416 10.1983 61.935 10.1983C62.3153 10.1983 62.6711 10.5234 63.0025 11.1736Q63.4996 12.1488 63.4996 14.4132C63.4996 14.876 63.2932 15.1074 62.8803 15.1074L60.3467 15.1074L60.3447 15.0717ZM81.7053 23.1405C80.6513 23.6804 79.4343 23.9504 78.0544 23.9504C76.5331 23.9504 75.1967 23.6336 74.0449 23C72.8931 22.3664 71.994 21.4793 71.3474 20.3388C70.7009 19.1983 70.3777 17.8788 70.3777 16.3802C70.3777 14.8044 70.6901 13.4242 71.3148 12.2397C71.9396 11.0551 72.8442 10.1322 74.0286 9.47107C75.213 8.80992 76.6364 8.47934 78.2988 8.47934C79.7114 8.47934 80.9283 8.75758 81.9497 9.31405C82.9711 9.87052 83.7562 10.6253 84.3049 11.5785C84.8536 12.5317 85.128 13.5923 85.128 14.7603C85.128 15.2672 84.9922 15.6667 84.7205 15.9587L84.6557 16.0235C84.388 16.2723 84.0184 16.3967 83.547 16.3967L76.0963 16.3967L76.1122 16.4729C76.3099 17.3804 76.6476 18.1071 77.1253 18.6529Q77.5716 19.1628 78.1264 19.4865Q79.0915 20.0496 80.3851 20.0496C81.2543 20.0496 82.0231 19.8512 82.6913 19.4545C83.3596 19.0578 83.8078 18.5069 84.036 17.8017C84.1664 17.6584 84.2832 17.562 84.3864 17.5124C84.4896 17.4628 84.5793 17.438 84.6553 17.438C84.764 17.438 84.8563 17.4821 84.9324 17.5702C85.0085 17.6584 85.0465 17.8072 85.0465 18.0165C85.0465 19.0964 84.7531 20.0854 84.1664 20.9835C83.5796 21.8815 82.7592 22.6006 81.7053 23.1405ZM75.9262 15.0717Q75.9029 14.6914 75.9029 14.281C75.9029 13.2452 75.979 12.4298 76.1311 11.8347C76.2832 11.2397 76.4788 10.8182 76.7179 10.5702Q76.9877 10.2904 77.3037 10.2211Q77.4076 10.1983 77.5165 10.1983C77.8968 10.1983 78.2527 10.5234 78.5841 11.1736C78.9155 11.8237 79.0812 12.9036 79.0812 14.4132Q79.0812 14.7998 78.8892 14.9711Q78.7363 15.1074 78.4618 15.1074L75.9283 15.1074L75.9262 15.0717ZM95.5999 23.4132C95.4641 23.551 95.2657 23.6198 95.005 23.6198L86.8556 23.6198C86.6166 23.6198 86.4292 23.5537 86.2933 23.4215C86.1575 23.2893 86.0896 23.1074 86.0896 22.876C86.0896 22.6997 86.1303 22.5537 86.2118 22.438Q86.3341 22.2645 86.546 22.1157L86.9208 21.9669Q87.0335 21.9142 87.1093 21.8288Q87.176 21.7535 87.2142 21.6529C87.2685 21.5096 87.2957 21.2727 87.2957 20.9421L87.2957 12.5455C87.2957 12.281 87.2658 12.0909 87.2061 11.9752C87.1463 11.8595 87.0458 11.7686 86.9045 11.7025L86.4808 11.6529C86.3286 11.5647 86.2173 11.4711 86.1466 11.3719C86.076 11.2727 86.0407 11.146 86.0407 10.9917C86.0407 10.8154 86.095 10.6584 86.2037 10.5207C86.3123 10.3829 86.4971 10.2645 86.7578 10.1653L91.3867 8.82645C91.6583 8.71626 91.8865 8.63912 92.0712 8.59504Q92.3483 8.52893 92.5439 8.52893C92.7286 8.52893 92.8671 8.59504 92.9595 8.72727L92.9892 8.77523C93.0654 8.91344 93.118 9.13437 93.1469 9.43801L93.271 12.0064L93.2993 11.9116C93.3544 11.7327 93.4149 11.5611 93.481 11.3967C93.8777 10.4105 94.4019 9.67768 95.0539 9.19835Q95.6623 8.751 96.3401 8.58198Q96.7518 8.47934 97.189 8.47934C98.1234 8.47934 98.8406 8.79339 99.3404 9.42149C99.8402 10.0496 100.09 11.0028 100.09 12.281Q100.09 14.1818 99.3078 15.0744C98.7863 15.6694 98.1126 15.9669 97.2868 15.9669Q96.0979 15.9669 95.5187 15.3727Q95.5103 15.3641 95.5021 15.3554C95.1163 14.9477 94.9126 14.3691 94.8909 13.6198L94.8746 12.9587C94.8637 12.7052 94.8148 12.5069 94.7279 12.3636C94.641 12.2204 94.4997 12.1488 94.3041 12.1488C94.1086 12.1488 93.9374 12.2507 93.7907 12.4545C93.644 12.6584 93.5327 12.9697 93.4566 13.3884Q93.3425 14.0165 93.3425 14.9917L93.3425 20.8099C93.3425 21.1185 93.3914 21.3636 93.4892 21.5455C93.587 21.7273 93.7391 21.8402 93.9456 21.8843L95.168 22.1322Q95.4898 22.1789 95.6387 22.3643Q95.6482 22.3761 95.6569 22.3884Q95.6903 22.4354 95.716 22.4862Q95.8036 22.6589 95.8036 22.876C95.8036 23.0964 95.7357 23.2755 95.5999 23.4132ZM112.893 22.9091C111.67 23.5813 110.25 23.9174 108.631 23.9174C107.055 23.9174 105.672 23.5895 104.483 22.9339Q103.477 22.3794 102.722 21.586Q102.137 20.972 101.704 20.2149Q101.671 20.1585 101.64 20.1015Q100.71 18.4052 100.71 16.1983C100.71 14.7438 101.057 13.4353 101.753 12.2727C102.448 11.1102 103.41 10.1873 104.637 9.50413Q104.678 9.48177 104.718 9.4599Q106.532 8.47934 108.875 8.47934C110.462 8.47934 111.847 8.80992 113.031 9.47107C114.216 10.1322 115.139 11.0468 115.802 12.2149Q115.827 12.2596 115.852 12.3046Q116.796 14.0255 116.796 16.2645C116.796 17.719 116.451 19.022 115.761 20.1736C115.071 21.3251 114.115 22.2369 112.893 22.9091ZM109.869 22.1983C109.533 22.2645 109.204 22.1157 108.883 21.7521C108.563 21.3884 108.259 20.7769 107.971 19.9174Q107.539 18.6281 107.147 16.5289C106.898 15.1295 106.756 13.978 106.724 13.0744Q106.716 12.8485 106.716 12.641C106.716 11.9492 106.783 11.4105 106.919 11.0248C107.082 10.562 107.332 10.292 107.669 10.2149C108.006 10.1488 108.335 10.2975 108.655 10.6612C108.976 11.0248 109.283 11.6364 109.576 12.4959Q110.016 13.7851 110.407 15.8843C110.668 17.2837 110.812 18.438 110.839 19.3471C110.843 19.4734 110.845 19.5953 110.845 19.713C110.845 20.4424 110.772 21.0064 110.627 21.405C110.459 21.8678 110.206 22.1322 109.869 22.1983ZM131.97 23.4463C131.384 23.7824 130.634 23.9504 129.721 23.9504C128.624 23.9504 127.773 23.7163 127.17 23.2479L127.067 23.1642C126.733 22.8813 126.504 22.5612 126.379 22.2039L126.355 22.1299L126.332 22.1586C125.935 22.6493 125.418 23.0455 124.783 23.3471C123.935 23.7493 123.022 23.9504 122.044 23.9504Q120.286 23.9504 119.153 23.1082Q119.026 23.0139 118.907 22.9091C118.119 22.2149 117.725 21.3278 117.725 20.2479C117.725 18.8264 118.299 17.719 119.445 16.9256C120.591 16.1322 122.332 15.7355 124.669 15.7355L124.844 15.7373C125.189 15.7446 125.493 15.7735 125.755 15.8241L125.842 15.843L125.842 11.0248C125.842 10.6391 125.752 10.3333 125.573 10.1074C125.394 9.88154 125.152 9.76859 124.848 9.76859C124.565 9.76859 124.329 9.854 124.139 10.0248C123.949 10.1956 123.854 10.4353 123.854 10.7438L123.854 12Q123.854 12.781 123.521 13.3767Q123.333 13.7139 123.039 13.9917C122.495 14.5041 121.751 14.7603 120.806 14.7603Q119.649 14.7603 119.037 14.2066C118.63 13.8375 118.426 13.3003 118.426 12.595Q118.426 12.5352 118.429 12.4755Q118.476 11.546 119.249 10.6529C119.798 10.0193 120.618 9.49862 121.71 9.09091C122.802 8.6832 124.163 8.47934 125.793 8.47934Q128.939 8.47934 130.414 9.67768C131.397 10.4766 131.889 11.6033 131.889 13.0578L131.889 20.3636C131.889 20.573 131.935 20.741 132.027 20.8678C132.12 20.9945 132.258 21.0578 132.443 21.0578Q132.51 21.0578 132.574 21.0443Q132.697 21.0183 132.81 20.9421C132.924 20.865 133.008 20.7273 133.062 20.5289C133.095 20.4848 133.133 20.4518 133.176 20.4298C133.22 20.4077 133.269 20.3967 133.323 20.3967Q133.395 20.3967 133.455 20.4234Q133.545 20.4631 133.608 20.562C133.679 20.6722 133.714 20.8099 133.714 20.9752C133.714 21.3609 133.57 21.7851 133.282 22.2479C132.994 22.7107 132.557 23.1102 131.97 23.4463ZM125.158 21.3719C124.723 21.3719 124.372 21.1928 124.106 20.8347C123.84 20.4766 123.707 19.9284 123.707 19.1901C123.707 18.4187 123.835 17.8347 124.09 17.438C124.345 17.0413 124.685 16.843 125.109 16.843C125.359 16.843 125.576 16.8678 125.761 16.9174L125.842 16.9422L125.842 21.1837L125.789 21.2137C125.615 21.3041 125.436 21.3558 125.251 21.3687L125.158 21.3719ZM145.661 22.6612C144.629 23.5537 143.146 24 141.212 24Q140.234 24 139.59 23.8182C139.161 23.697 138.813 23.5758 138.547 23.4545C138.281 23.3333 138.066 23.2727 137.903 23.2727C137.74 23.2727 137.525 23.3333 137.259 23.4545L136.461 23.8182Q136.061 24 135.784 24C135.621 24 135.469 23.9449 135.328 23.8347C135.187 23.7245 135.078 23.5041 135.002 23.1736L134.497 19.8843C134.438 19.6331 134.409 19.4056 134.409 19.202C134.409 19.0662 134.422 18.9411 134.448 18.8264C134.513 18.5399 134.66 18.3526 134.888 18.2645C135.127 18.1543 135.363 18.1488 135.597 18.2479C135.83 18.3471 136.04 18.5234 136.224 18.7769C136.844 19.7355 137.403 20.4904 137.903 21.0413C138.403 21.5923 138.889 21.9807 139.362 22.2066C139.834 22.4325 140.332 22.5455 140.853 22.5455C141.407 22.5455 141.82 22.4132 142.092 22.1488C142.363 21.8843 142.499 21.5482 142.499 21.1405C142.499 20.832 142.421 20.551 142.263 20.2975C142.105 20.0441 141.817 19.8099 141.399 19.595C140.981 19.3802 140.38 19.168 139.598 18.9587C138.392 18.6501 137.392 18.2479 136.599 17.7521C135.806 17.2562 135.217 16.6612 134.831 15.9669C134.445 15.2727 134.252 14.4628 134.252 13.5372C134.252 12.4904 134.51 11.5895 135.026 10.8347C135.542 10.0799 136.249 9.49862 137.145 9.09091Q138.49 8.47934 140.169 8.47934C140.842 8.47934 141.391 8.54546 141.815 8.67768C142.239 8.80992 142.567 8.94215 142.801 9.07438C143.034 9.20661 143.211 9.27273 143.331 9.27273C143.461 9.27273 143.654 9.20937 143.909 9.08265C144.164 8.95592 144.423 8.83195 144.683 8.71074Q145.074 8.52893 145.335 8.52893C145.531 8.52893 145.688 8.59504 145.808 8.72727C145.927 8.8595 146.009 9.0854 146.052 9.40496L146.476 12.4463C146.521 12.7034 146.543 12.9258 146.543 13.1136C146.543 13.2477 146.531 13.3641 146.509 13.4628C146.454 13.6997 146.313 13.8512 146.085 13.9174Q146.053 13.9251 146.02 13.9295Q145.772 13.9633 145.498 13.8099C145.292 13.6942 145.085 13.5096 144.879 13.2562C144.086 12.0551 143.36 11.2066 142.703 10.7107C142.046 10.2149 141.348 9.96694 140.609 9.96694Q139.81 9.96694 139.403 10.314C139.131 10.5455 138.995 10.8485 138.995 11.2231C138.995 11.4766 139.055 11.7135 139.174 11.9339Q139.354 12.2645 139.834 12.5537C140.155 12.7466 140.609 12.9366 141.195 13.124C142.771 13.6088 143.993 14.124 144.863 14.6694C145.732 15.2149 146.34 15.8402 146.688 16.5455C147.036 17.2507 147.21 18.0716 147.21 19.0083C147.21 20.551 146.694 21.7686 145.661 22.6612ZM156.663 23.3802Q155.587 23.9504 154.12 23.9504C152.469 23.9504 151.227 23.5482 150.396 22.7438C149.565 21.9394 149.149 20.6722 149.149 18.9422L149.149 11.4711C149.149 11.2397 149.127 11.0634 149.084 10.9421C149.041 10.8209 148.932 10.7218 148.758 10.6446L147.992 10.3967C147.807 10.3085 147.688 10.2011 147.633 10.0744C147.579 9.94766 147.552 9.79063 147.552 9.60331C147.552 9.3719 147.633 9.18182 147.796 9.03306C147.959 8.8843 148.16 8.80992 148.399 8.80992L149.198 8.80992Q149.345 8.80992 149.508 8.69421C149.616 8.61708 149.763 8.46281 149.948 8.23141L152.963 5.70248Q153.289 5.30579 153.615 5.09917Q153.941 4.89256 154.267 4.89256C154.517 4.89256 154.712 4.9697 154.854 5.12397L154.898 5.17865C155.01 5.3332 155.066 5.55739 155.066 5.85124L155.065 8.80992L158.472 8.80992C158.711 8.80992 158.896 8.86226 159.026 8.96694C159.157 9.07162 159.222 9.23416 159.222 9.45454C159.222 9.76308 159.086 10.0275 158.814 10.2479L158.754 10.2935C158.48 10.4835 158.065 10.5785 157.51 10.5785L155.065 10.5785L155.066 18.1157C155.066 18.9422 155.204 19.5537 155.481 19.9504C155.758 20.3471 156.163 20.5455 156.695 20.5455C156.924 20.5455 157.136 20.4959 157.331 20.3967C157.527 20.2975 157.703 20.168 157.861 20.0083C158.018 19.8485 158.168 19.6694 158.309 19.4711C158.45 19.2727 158.586 19.0744 158.717 18.876C158.825 18.832 158.92 18.8512 159.002 18.9339C159.074 19.0068 159.11 19.1462 159.11 19.3521C159.11 19.3796 159.109 19.4082 159.108 19.438C159.032 20.3306 158.784 21.1157 158.366 21.7934C157.948 22.4711 157.38 23 156.663 23.3802ZM170.989 23.1405C169.935 23.6804 168.718 23.9504 167.339 23.9504C165.817 23.9504 164.481 23.6336 163.329 23C162.177 22.3664 161.278 21.4793 160.632 20.3388C159.985 19.1983 159.662 17.8788 159.662 16.3802Q159.662 14.0165 160.599 12.2397C161.224 11.0551 162.128 10.1322 163.313 9.47107Q165.089 8.47934 167.583 8.47934C168.996 8.47934 170.212 8.75758 171.234 9.31405Q172.288 9.88843 173.007 10.7446Q173.332 11.1326 173.589 11.5785C174.138 12.5317 174.412 13.5923 174.412 14.7603C174.412 15.2672 174.276 15.6667 174.005 15.9587L173.94 16.0235C173.672 16.2723 173.303 16.3967 172.831 16.3967L165.38 16.3967L165.396 16.4729C165.594 17.3804 165.932 18.1071 166.409 18.6529Q166.856 19.1628 167.411 19.4865Q168.376 20.0496 169.669 20.0496C170.538 20.0496 171.307 19.8512 171.975 19.4545C172.644 19.0578 173.092 18.5069 173.32 17.8017C173.451 17.6584 173.567 17.562 173.671 17.5124C173.774 17.4628 173.863 17.438 173.939 17.438C174.048 17.438 174.14 17.4821 174.217 17.5702C174.293 17.6584 174.331 17.8072 174.331 18.0165C174.331 19.0964 174.037 20.0854 173.451 20.9835C172.864 21.8815 172.043 22.6006 170.989 23.1405ZM165.21 15.0717Q165.187 14.6914 165.187 14.281C165.187 13.2452 165.263 12.4298 165.415 11.8347C165.567 11.2397 165.763 10.8182 166.002 10.5702C166.241 10.3223 166.507 10.1983 166.801 10.1983C167.181 10.1983 167.537 10.5234 167.868 11.1736C168.2 11.8237 168.365 12.9036 168.365 14.4132C168.365 14.876 168.159 15.1074 167.746 15.1074L165.212 15.1074L165.21 15.0717ZM184.884 23.4132C184.748 23.551 184.55 23.6198 184.289 23.6198L176.14 23.6198C175.901 23.6198 175.713 23.5537 175.577 23.4215C175.442 23.2893 175.374 23.1074 175.374 22.876C175.374 22.6997 175.414 22.5537 175.496 22.438Q175.618 22.2645 175.83 22.1157L176.205 21.9669Q176.318 21.9142 176.393 21.8289Q176.46 21.7536 176.498 21.6529C176.553 21.5096 176.58 21.2727 176.58 20.9421L176.58 12.5455C176.58 12.281 176.55 12.0909 176.49 11.9752Q176.482 11.9587 176.472 11.9428Q176.38 11.7922 176.189 11.7025L175.765 11.6529C175.613 11.5647 175.501 11.4711 175.431 11.3719C175.36 11.2727 175.325 11.146 175.325 10.9917C175.325 10.8154 175.379 10.6584 175.488 10.5207C175.596 10.3829 175.781 10.2645 176.042 10.1653L180.671 8.82645Q181.078 8.66116 181.355 8.59504C181.54 8.55096 181.698 8.52893 181.828 8.52893C182.013 8.52893 182.151 8.59504 182.244 8.72727L182.273 8.77523C182.349 8.91344 182.402 9.13437 182.431 9.43801L182.555 12.0069L182.583 11.9116C182.638 11.7327 182.699 11.5611 182.765 11.3967Q183.36 9.91735 184.338 9.19835C184.99 8.71901 185.702 8.47934 186.473 8.47934C187.408 8.47934 188.125 8.79339 188.625 9.42149C189.124 10.0496 189.374 11.0028 189.374 12.281C189.374 13.5482 189.114 14.4793 188.592 15.0744C188.07 15.6694 187.397 15.9669 186.571 15.9669C185.767 15.9669 185.172 15.7631 184.786 15.3554C184.4 14.9477 184.197 14.3691 184.175 13.6198L184.159 12.9587C184.148 12.7052 184.099 12.5069 184.012 12.3636C183.925 12.2204 183.784 12.1488 183.588 12.1488C183.393 12.1488 183.222 12.2507 183.075 12.4545C182.928 12.6584 182.817 12.9697 182.741 13.3884C182.665 13.8072 182.627 14.3416 182.627 14.9917L182.627 20.8099C182.627 21.1185 182.676 21.3636 182.773 21.5455C182.871 21.7273 183.023 21.8402 183.23 21.8843L184.452 22.1322C184.68 22.1653 184.843 22.2507 184.941 22.3884C185.039 22.5262 185.088 22.6887 185.088 22.876C185.088 23.0964 185.02 23.2755 184.884 23.4132ZM201.452 22.6612C200.419 23.5537 198.936 24 197.002 24Q196.024 24 195.38 23.8182C194.951 23.697 194.603 23.5758 194.337 23.4545C194.071 23.3333 193.856 23.2727 193.693 23.2727C193.53 23.2727 193.316 23.3333 193.05 23.4545L192.251 23.8182Q191.852 24 191.575 24C191.412 24 191.26 23.9449 191.118 23.8347C190.977 23.7245 190.868 23.5041 190.792 23.1736L190.287 19.8843C190.228 19.6331 190.199 19.4056 190.199 19.202C190.199 19.0662 190.212 18.9411 190.238 18.8264C190.303 18.5399 190.45 18.3526 190.678 18.2645C190.917 18.1543 191.154 18.1488 191.387 18.2479C191.621 18.3471 191.83 18.5234 192.015 18.7769C192.634 19.7355 193.194 20.4904 193.693 21.0413C194.193 21.5923 194.68 21.9807 195.152 22.2066C195.625 22.4325 196.122 22.5455 196.644 22.5455C197.198 22.5455 197.611 22.4132 197.882 22.1488C198.154 21.8843 198.29 21.5482 198.29 21.1405C198.29 20.832 198.211 20.551 198.053 20.2975C197.896 20.0441 197.608 19.8099 197.19 19.595C196.771 19.3802 196.171 19.168 195.389 18.9587C194.182 18.6501 193.183 18.2479 192.39 17.7521C191.596 17.2562 191.007 16.6612 190.621 15.9669C190.235 15.2727 190.043 14.4628 190.043 13.5372C190.043 12.4904 190.301 11.5895 190.817 10.8347C191.333 10.0799 192.039 9.49862 192.936 9.09091Q194.28 8.47934 195.959 8.47934C196.633 8.47934 197.181 8.54546 197.605 8.67768C198.029 8.80992 198.358 8.94215 198.591 9.07438C198.825 9.20661 199.001 9.27273 199.121 9.27273C199.251 9.27273 199.444 9.20937 199.7 9.08265C199.955 8.95592 200.213 8.83195 200.474 8.71074Q200.865 8.52893 201.126 8.52893C201.321 8.52893 201.479 8.59504 201.598 8.72727C201.718 8.8595 201.799 9.0854 201.843 9.40496L202.267 12.4463C202.311 12.7034 202.333 12.9258 202.333 13.1136C202.333 13.2477 202.322 13.3641 202.299 13.4628C202.245 13.6997 202.104 13.8512 201.875 13.9174Q201.843 13.9251 201.81 13.9295Q201.562 13.9633 201.289 13.8099C201.082 13.6942 200.876 13.5096 200.669 13.2562C199.876 12.0551 199.151 11.2066 198.493 10.7107C197.836 10.2149 197.138 9.96694 196.399 9.96694Q195.6 9.96694 195.193 10.314C194.921 10.5455 194.785 10.8485 194.785 11.2231C194.785 11.4766 194.845 11.7135 194.965 11.9339Q195.144 12.2645 195.625 12.5537C195.945 12.7466 196.399 12.9366 196.986 13.124C198.561 13.6088 199.784 14.124 200.653 14.6694C201.522 15.2149 202.131 15.8402 202.478 16.5455C202.826 17.2507 203 18.0716 203 19.0083C203 20.551 202.484 21.7686 201.452 22.6612Z" clip-rule="evenodd" fill="#555555" fill-opacity="1.000000" fill-rule="evenodd"/>
</svg>
