<svg width="422" height="408" fill="none" xmlns="http://www.w3.org/2000/svg"><path d="M375.91 353.17c-17.65-31-41.31-59.71-64.07-87.06 6.72 1.85 15.6.41 21.73-2.64 6.89-3.43 10.38-9.39 13.17-16.28.39-.98 2.98-11.05 4.87-10.51 3.48 1.01 4.49 23.21 4.86 25.93 1.34 9.69 3.41 19.18 5.58 28.71 4.68 20.56 9.77 41.17 13.86 61.85Zm-75.35-105.24c-4.92.34-8.64-6.62-11.81-10.21 5.31-.21 27.98-6.48 30.69-1.06 4.4 8.8-14.39 10.94-18.88 11.27ZM189.95 80.11c-.03 2.93-.03 14.27-4.61 10.75-3.1-2.38-4.79-13.04-5.75-16.31-1.96-6.66-4.97-14.87-4.63-21.9.65-13.3 9.38-4.22 11.37 2.87 2.2 7.83 3.65 16.43 3.62 24.59Zm35 58.29c5.79-3.63 3.47 3.14 1.29 6.37-6.12 9.08-7.47-1.44-1.29-6.37Zm-13.04-31.12c-1.22-6.6-.62-15.56 1.27-21.87 1.48-4.96 6.21-9.58 9.12-3.24 2.41 5.26-2.15 19.08-4.58 24.25-1.98 4.21-4.7 7.78-5.81.86Zm-25.15 2.02c1.09 12.67-9.94 17.31-9.58 2.84.22-8.85 7.65-15.38 9.58-2.84Zm23.32 76.35c.34 5.25-10.71 23.64-11.5 13.49-.23-2.89 10.91-18.23 11.5-13.49Zm-32.39-17.73c-3.78 2.45-14.17 10.63-18.1 8.98-6.27-2.65.9-10.07 3.69-11.98 3.04-2.09 11.4-7.2 15.6-6.56 7.7 1.18 2.7 6.79-1.19 9.56Zm-56.76-75.75c-9.37 3.99-12.67-7.17-14.69-13.83-1.32-4.36-6-13.48-1.09-16.59 8.83-5.6 18.68 23.19 15.78 30.42ZM152 93.48c-1.43-4.47-2.55-9.04-3.95-13.52-.83-2.66-5.2-12.05-4.67-14.28 1.66-7.07 7.37-3.54 10.7 1.65 3.41 5.32 6.97 16.43 6.61 22.54-.33 5.67-5.62 12.26-8.69 3.61Zm-17.29-47.03c-2.46-7.78 2.86-14.32 8.96-5.65 6.9 9.8-3.59 20.16-8.96 5.65Zm13.49 137.51c.36 7.12-23.76 17.84-29.21 14.57-7.18-4.32 7.56-9.69 11.66-11.82 3.46-1.79 16.54-10.9 17.55-2.75Zm-42.75-10.6c-6.12 1.72-12.4 4.11-18.69 4.98-8.65 1.18-8.58-3.67-2.11-8.77 5.66-4.46 16.23-5.53 22.98-8.23 5.39-2.16 21.03-14.51 24.93-10.68 8.79 8.61-21.33 21.01-27.11 22.7Zm1.63 27.73c.25 9.67-25.37 12.91-31.09 13.47 3.84-2.73 29.34-26.81 31.09-13.47Zm-48.47-48.77c-17.36-.58.08-13.22 5.93-15.55 4.25-1.7 14.24-5.47 18.56-1.91 11.34 9.32-20.02 17.63-24.49 17.46Zm1.97-35.35c.4-6 29.29-15.03 30.92-9.54 1.29 4.32-29.53 22.12-30.92 9.54Zm41.56 7.23c11.46-7.85 26.98-.47 9.8 8.64-3.38 1.78-12.2 6.6-15.94 3.85-5.29-3.88 3.11-10.53 6.14-12.49Zm316.17 26.4c-2.84-5.03-6.94-12.05-11.64-7.31-1.83 1.84-3.71 9.53-4.95 12.41-4.34 10.1-8.94 21.38-18.08 28.15-5.47 4.04-24.54 10.58-19.75-1.77 4.07-10.55 17.58-19.88 25.73-27.53 3.78-3.54 12.74-10.82 14.71-15.97 1.5-3.92-2.11-13.15-8.58-11.06-2.94.94-3.32 9.53-4.39 11.97-1.7 3.86-4.7 6.89-7.35 10.1-4.2 5.08-8.64 12.54-15.24 14.94-7.92 2.88-10.37-1.76-6.3-8.88 3.99-6.95 13-11.43 18.5-17.14 2.75-2.84 11.38-11.15 9.28-15.4-4.56-9.25-10.94 4.28-13.21 7.03-1.77 2.15-12.56 16.04-15.93 13.39-4.05-3.19 5.02-16.03 6.68-18.77 3.52-5.79 5.06-5.47.61-8.56-2.55-1.77-7.86-3.29-10.67-2.89-6.91.98-13.97 7.36-21.09 9.05-2.95.7-12.99.54-14.21 5.06-1.87 6.94 28.33 23.58 12.42 27.37-12.3 2.93-23.86-16.12-33.97-8.29-15.98 12.39 9.39 19.93 19.14 22.5 4.37 1.15 18.76 1.65 16.66 9.38-1.71 6.28-13.65 4.9-18.25 4.12-8.71-1.45-16.6-5.67-24.75-8.81-2.2-.84-11.04-5.64-13.69-4.6-3.79 1.48-8.39 16.3-6.18 19.8 2.72 4.3 17.7 2.8 22.77 2.91 8.56.18 19.05-.13 26.34 5.2 8.05 5.89-1.9 6.81-7.4 6.57-11.87-.52-23.98-4.71-35.61-6.99-4.06-.8-10.1-2.96-14.13-2.4-6.1.84-4.81 1.26-2.3 6.25 5.59 11.12 11.27 12.37 23.65 13.24 5.65.39 30.36-2.86 32.3 4.67-6.07 4.78-20.79 2.17-27.96 2.07-5.24-.08-13.74 1.13-18.29-1.41-6.21-3.45-14.06-16.35-18.61-21.52-8.07-9.18-16.01-18.31-24.84-26.8 9.64 1.37 18.66 4.42 28.42 2.01 10.68-2.64 20.91-9.77 22.48-21.24.58-4.2-.12-8.5-.42-12.69-.1-1.34-.03-2.71-.2-4.04-.69-5.8-.21-7.69-4.19-3.49-4.54 4.77-7.68 15.64-15.48 17.66-8.63 2.24-4-4.22-.49-8 8.66-9.32 18.14-17.44 19.57-31.24.78-7.53.34-15.8-1.02-23.31-1.3-7.22-2.61-7-5.05-1.08-5.29 12.82-13.55 23.39-24.52 31.96-2.1 1.65-6.82 5.67-10 3.4-2.87-2.06-.78-5.96 0-8.91 1.72-6.5 4.2-12.54 6.65-18.79 3.22-8.24 8.82-19.36 9.05-28.23.15-5.76-4.52-8.24-8.64-11.85-4.83-4.22-9.15-8.73-12.89-13.95-2.61-3.63-5.42-9.09-9.34-11.48-6.1-3.71-4.73.92-4.27 5.55.37 3.7 5.72 40.23-2.95 38.35-8.6-1.86-4.98-36.24-6.17-43.78-1.59-10-15.47-8.64-23.87-10.47-4.43-.96-8.49-1.47-12.69-3.1-1.59-.62-3.4-3.32-5.19-2.51-4.06 1.85 12.32 16.88 8.06 22.21-7.18 9-14.43-14.76-16.48-19.1-1.73-3.64-3.79-7.91-6.22-11.08-3.74-4.89-4.25-3.71-9.76-2.07-5.51 1.64-18.67 1.5-22.83 5.14-4.02 3.53 1.11 6.11 3.9 9.32 2.64 3.03 11.2 13.32 3.98 15.45-2.6.77-12.05-6.92-14.5-8.5-5.2-3.36-4.08-2.6-8.44-1.5-5.07 1.28-10.78 2.92-15.66 4.65-6.12 2.17-7.57 3.19-2.99 7.58 5.38 5.13 13.43 8.23 16.08 15.57 1.29 3.17.44 6.72-3.57 6.79-4.28.07-6.22-5.77-7.87-8.9-2.08-3.96-5.99-13.27-11.07-14.1-3.17-.52-7.08 3.31-9.76 4.7-1.59.83-8.74 2.96-9.32 5.17-.63 2.42 7.62 7.67 9.86 10.25 5.7 6.59 11.77 14.73 13.93 22.67 1.66 12.94-13.33-2.79-15.69-6.72-2.63-4.35-11.04-26.86-18.57-24.58-2.05.62-3.32 5.62-5 7.25-2.06 2.01-4.7 2.81-7.16 4.06-3.66 1.84-7.32 3.69-10.83 5.77-1.09.65-4.03 2.52-4.62 2.95-.44.32-1.42.11-1.96.51-3.66 2.76-5.38 8.35-8.72 11.71-1.5 1.51-8.18 5.62-7.69 7.76.45 1.94 32.23 3.47 36.99 4 3.62.4 18.82-.24 20.67 3.3 1.82 3.46-1.25 4.68-4.24 5.82-7.42 2.85-16.77 3.52-24.58 4.92-5.51.98-28.1 2.39-31.03 7.87-3.02 5.66.65 9.54 4.87 10.31 4.61.86 11.28-1.09 15.79-1.74 3.67-.53 27.12-6.34 28.32-.94 1.31 5.88-26.72 10.82-29.49 11.57-5.31 1.42-14.26 1.68-18.94 4.4-4.19 2.45-2.62 2.73-1.46 6.75 4.03 13.88 5.46 11.17 17.73 8.05 4.7-1.2 10.73-3.33 15.22-.75 5.35 3.07 5.06 6.92.27 9.57-3.29 1.82-10.16 2.25-13.85 2.79-4.31.63-8.67.85-13.02.9-1.28.01-6.87-.92-8.09-.09-4.79 3.23 6.79 20.05 11.79 20.71 2.42.31 6.36-1.34 8.77-1.81 8.42-1.64 16.97-2.5 25.42-4.06 4.76-.88 27.03-7.39 23.04 4.15-2.21 6.37-18.32 9.58-23.66 11.4a239.93 239.93 0 0 1-15.55 4.71c-4.9 1.3-7.76.76-4.49 6.19 3.32 5.52 23.13 22.37 29.35 21.84 5.1-.44 3.2-2.8 8.93.6 2.1 1.26 4.23 3.32 6.05 4.94 7 6.21 14.19 15.18 23.97 16.92 20.88 3.72 49.41-24.23 62.89-37.21 2.68-2.58 12.92-15.23 17.9-12.4 5.24 2.97-3.84 14.78-5.65 17.05-10.06 12.64-22.59 24.77-37.48 31.34-3.97 1.75-15.09 3.43-18.84 6.53-3.73 3.06.08 4.05 4.04 6.65 8.44 5.56 19.72 13.75 30.09 10.35 13.66-4.49 20.99-18.81 28.63-30.05 4.23-6.24 24.08-35.69 24.35-12.6.12 11.5-7.16 24.66-15 32.57-1.46 1.48-10.94 6.2-10.74 7.32.3 1.7 5.98 2.43 7.02 2.66 10.05 2.16 40.24 5.1 44.48-7.84 2.9-8.88-.64-23.07-1.88-32-.39-2.77-2.34-7.23 1.65-8.11 5.11-1.13 9.48 16.71 9.87 19.54.78 5.81-.09 11.86-2.3 17.86-.96 2.63-3.62 4.99-.16 5.4 1.26.15 8.28-6.54 9.38-7.65 5.6-5.7 5.98-12.12 5.52-19.68-1.24-20.39-10.73-40.27-21.76-57.23 13.19 13.68 25.78 27.85 37.96 42.44 3.05 3.65 5.19 8.11 8.19 11.63 4.33 5.08 9.67 9.2 14.17 14.62-1.32-.13-12.82-3.23-13.15-.1-.3 2.85 9.45 7.26 11.44 8.32 8.99 4.76 12.53 5.17 19.6 13.79 17.58 21.46 33.65 43.7 49.38 66.53 7.69 11.15 15.79 22.14 22.57 33.89 3.39 5.89 6.12 12.18 8.7 18.46 1.78 4.32 4.01 17.37 9.55 18.75 6.44 1.62 4.86-5.47 3.55-8.81-2.95-7.53-5.09-14.86-7.19-22.71-3.41-12.78-5.98-25.77-9.71-38.48-4.66-15.85-8.49-31.84-12.33-47.9-2.49-10.43-4.63-21.03-6.24-31.64-1.1-7.28-.82-15.08-2.77-22.22 7.6 6.86 6.12 19.25 18.83 20.14 9.82.68 16.91-7.24 22.53-14.24 4.58-5.7 11.16-14.32 12.05-21.81 1.06-8.94-6.43-2.55-12.02-.61-3.6 1.25-13.53 6.97-16.5 3.55-4.15-4.77 10.65-10.98 13.51-12.8 6.3-3.99 13.28-8.85 18.07-14.71 1.89-2.31 9.74-27.45 1.03-24.03-1.1.43-2.64 3.94-3.53 5.18-4.13 5.73-8.82 10.9-13.88 15.81-5.52 5.35-17.57 17.94-26.78 15.22 3.73-11.3 19.35-17.18 27.79-24.59 5.43-4.75 10.13-10.01 13.35-16.53 1.6-3.24 5.68-12.33 3.73-15.78Z" fill="#02362C" fill-rule="evenodd"/></svg>