<svg width="313" height="286" fill="none" xmlns="http://www.w3.org/2000/svg"><path d="M235.61 135.65c2.72-.03 5.49 2.67 7.45 4.26-5.08-3.4-13.13-3.28-18.96-4.1-5.67-.8-11.3-1.99-16.78-3.71-.12-.04-12.26-4.01-8.15-6.3 11.37-6.38 25.46 10.41 36.44 9.85Zm-78.9-52.33c2.13 5.24 11.6 30.91 2.4 32.74-7.32 1.46-13.6-14.16-13.99-19.38-.65-8.69-.25-17.36-1.47-26.04 5.1 3.91 10.52 6.39 13.06 12.68ZM67.33 242.05c-3.51 4.34-7.06 8.67-10.87 12.74 4.01-4.97 7.83-9.97 12.34-14.5l-1.47 1.76ZM303.17 41.9c-1.93-2.49-9.45.55-11.6 1.03-5.9 1.34-12.3 2.52-17.69.18-4.64-1.16 2.86-9.19 4.03-12.26.83-2.16 2.54-7.62 1.12-9.81-3.06-4.71-9.46.81-12.64 2.98-4.67 3.18-6.6 5.25-5.79-.6.87-6.28 7.45-16.86.79-22.42-5.68-4.74-14.49 4.26-17.92 7.87-6.46 6.81-9.46 14.51-10.84 23.67-.32 2.14-2.8 14.77-4.97 12.55-4.33-5.57-.9-13.75-4.32-19.75-1.95-3.41-4.63-5.1-6.26-8.94-1.62-3.78-3.25-10.58-8.47-10.99-3.32-.26-5.51 2.49-6.05 5.22-1.74 6.41-.43 12.19-.55 18.68-.08 4.75-3.2 8.32-2.04 13.21 1.87 7.45 4.31 15.27 5.57 23.03.4 2.43 1.74 13.5-3.02 11.34-2.68-1.22-2.4-11.58-2.59-13.4-.43-4.36-.37-8.7-2.99-12.47-1.5-2.16-3.99-2.99-5.15-4.68-3.42-5.02-3.19-13.52-6.02-19.03-2.53-4.94-9.25-16.92-15.16-18.09-8.08-1.61-5.04 9.39-4.51 14.21.59 5.34 1.48 10.21 1.01 15.42-.41 4.6-.09 8.33 1.68 12.8 3.26 8.25 8.16 15.37 12.28 22.9l-.03-.09c2.31 4.42 4.24 9.89 4.02 15-.36 8.55-3.32 4.2-5.92-1.63-3.93-8.78-6.48-18.17-10.36-26.95-1.38-3.12-3.03-6.3-5.91-8.33-1.94-1.37-4.33-1.04-5.82-1.87-5.22-2.87-24.43-35.43-32.5-25.73-4.35 5.24 6.46 16.45 8.74 20.37 3.64 6.26 7.51 10.58 7.14 18.01-2.12-1.97-5.03-.94-6.97-2.5-2.3-1.86-2.94-5.81-4.02-8.38-2.96-7.09-6.45-14.07-11.08-20.19-14.14-18.65-11.76 9.55-10.36 18.87.27 1.78.58 4.07.86 6.1.72 5.34-.52 6.2-1.28 10.92-1.3 8.03 8.16 18.61 13.05 24.36 1.51 1.78 24.76 30.59 14.57 30.35-5.14-.12-13.81-14.74-16.21-19.22-3.68-6.9-6.22-20.68-13.88-24.26-2.4-1.12-4.39.06-6.62-.83-5.21-2.06-8.74-10.22-12.51-14.03-7.66-7.77-17.08-6.69-10.67 5.91 2.54 4.98 3.8 8.31 5.36 13.73 1.78 6.19 7.37 9.38 9.94 14.8 2.13 4.48-1.18 2.09-.99 7.42.16 4.43 7.03 9.27 10.26 11.74 4.49 3.42 24.73 14.88 20.76 21.8-3.61 6.31-15.41-3.2-18.57-6.09-7.89-7.24-11.04-17-15.48-26.37-2.16-4.57-4.64-10.11-8.18-13.81-3.1-3.24-6.64-3.68-10.48-5.35-4.48-1.95-24.23-12.34-23.32.21.61 8.44 12.36 12.52 13.83 20.57-5.28-2.35-16.34-13.06-22.64-7.43-6.08 5.43 5.98 17.16 9.66 21.6 2.25 2.72 17.69 14.95 17.43 19.54-.27 4.78-5.81 3.07-9.01 2.43-5.48-1.08-54.51-13.15-54.29-3.16.17 7.75 19.02 5.13 21.46 9.52.89 1.62-1.06 2.41-1.4 4.13-1.26 6.31.83 8.84 7.46 9.53-6.3 15.1 14.56 7.09 21.57 4.68 4.77-1.64 25.09-9.07 26.5 1.12.47 3.43-5.27 8.83-6.24 12.18-1.89 6.47 2.86 10.44 9.1 8.26 4.3-1.51 8.2-5.31 10.95-8.83 1.59-2.02 4.39-8.68 7.03-9.14-.27 10.95 6.12 5.29 11.95.59 4.36-3.52 15.21-13.09 21.69-9.29-5.07 7.04-12 12.65-17.54 19.29-6.07 7.28-12.38 14.08-19.37 20.96-13.26 13.05-26.55 27.27-38.22 41.69-5.71 7.05-11.89 13.77-18.01 20.47-2.21 2.42-16.07 13.25-11.21 17.66 6.57 5.95 17.98-16.57 22.67-19.17 22.3-25.37 46.07-49.45 67.68-75.31-.89 2.92.09 11.15 4.5 11.01-1.04 2.39-4.16 6.05-3.43 8.79 1.6 6.07 4.06.6 6.34.96 3.89.61.69 7.62-.03 10.48-3.36 13.33-3.99 27.89-4.85 41.6-.48 7.52 5.84 28.34 16.52 19.43 5.34-4.45 5.89-15.58 6.23-21.82.21-3.93-1.58-14.84 1.14-18.25 4.52 2.39 9.94 13.13 12.84 16.98 6.13 8.13 11.49 13.3 22.14 14 25.31 1.65-5.34-27.09-2.28-29.01 2.15-1.36 16.96 11.14 18.92 12.63 4.35 3.31 17.58 11.38 22.43 4.61 4.08-5.68-6.34-15.18-9.43-18.84-2.6-3.07-4.53-7.27-7.78-10.36-2.67-2.54-6.25-3.99-8.89-6.41-2.75-2.51-2.91-6.13-5.98-9.01-3.44-3.24-8.12-5.94-11.9-8.88-6.33-4.92-15.29-11.32-16.03-20.25 14.46 1.8 24.33 17.54 34.21 26.69 4.93 4.57 10.75 10.44 17.9 8.89 2.87-.63-.2-1.19 3.64-1.46.86-.06 2.03.45 2.87.64 5.99 1.42 11.73 3.6 17.68 5.17 3.69.97 15.51 5.28 18.82 1.74 5.99-6.44-19.88-22.6-24.46-26.19-3.46-2.71-7.62-5.02-10.89-7.84-3-2.58-4-6.02-8.04-7.92-5.22-2.46-11.28-3.31-16.73-5.15-7.32-2.49-13.41-6.13-19.5-10.82-2.53-1.94-8.65-6.12-7.33-9.63 2.13-5.64 11.74 1.57 14.46 3.11 8.06 4.58 15.61 11.87 25.57 14.88 10.32 3.12 15.61 13.25 25.11 17.79 3.43 1.63 5.36 1.79 8.97 1.12 4.03-.73 5.93-1.2 10.66 0 4.28 1.09 24.95 7.81 23.38-1.83-.51-3.13-5.04-4.42-7.34-5.7-5.06-2.82-9.98-5.93-15.11-8.63-3.26-1.71-7.4-2.89-10.07-5.54-2.53-2.52-3.09-5.08-6.73-6.72-4.9-2.21-12.27-1.85-16.56-4.84-4.09-2.84-7.32-6.93-12.01-9.56-3.73-2.09-24.86-9.91-24.28-13.4 1.17-7.1 24.97 6.47 26.8 7.46 11.68 6.35 23.13 14.81 35.12 20.79 4.03 2.01 7.16 1.26 10.87 1.8 4.93.73 10.08 4.12 15.09 5.29 3.99.93 14.43 3.38 12.4-3.57-1.47-5.03-11.02-9.36-15.02-12.4-4.51-3.43-8.72-7.15-13.61-10.05-1.05-.63-3.37-1.42-4.14-2.29-2.13-2.39-.72-6.04-3.28-8.74 2.69 2.59 5.35 3.93 9 3.96.95.02 2.79-1.01 3.98-1.15 3.61-.46 7.87.75 11.48 1.16 5.08.57 30.68-.15 17.5-9.13-5.64-3.83-11.98-6.74-18.26-9.31-4.93-2.03-11.38-3.51-15.54-6.91-4.31-3.52-5.1-5.33-11.36-6.26-6.43-.96-15.51-.77-20.57-5.41-10.3-9.46 24.01-3.11 27.66-2.19 7.38 1.86 15.35 3.32 22.88 1.66 8.41-1.86 15.37-5.84 24.21-6.25 3.94-.18 16.85.23 16.63-6.1-.23-6.24-14.67-6.65-18.5-7.42-3.96-.8-8.46-1.07-12.27-2.23-3.45-1.05-6.09-3.28-9.45-4.58-9.54-3.68-17.65 1.02-27.16.58-5.02-.24-7.41-2.21-2.16-5.8 2.83-1.94 7.38-2.12 10.72-3.06 5.02-1.41 9.96-3.2 14.92-4.83 6.69-2.21 44.26-13.99 34.89-25.98Z" fill="#89B99A" fill-rule="evenodd"/></svg>