<svg width="16.000000" height="16.000000" viewBox="0 0 16 16" fill="none" xmlns="http://www.w3.org/2000/svg" xmlns:xlink="http://www.w3.org/1999/xlink">
	<desc>
			Created with Pixso.
	</desc>
	<defs/>
	<path id="Shape" d="M-0.453518 8.48938C-0.230022 6.31585 0.822956 4.19032 2.51042 2.50279C6.02484 -1.00876 11.2342 -1.51577 14.1232 1.37777C17.0136 4.26832 16.5096 9.4779 12.9967 12.991C11.3092 14.6785 9.18377 15.7315 7.01031 15.9565C6.72083 15.985 6.43433 16 6.15384 16C4.28488 16 2.61541 15.3445 1.38544 14.1145C-0.0305252 12.6999 -0.684513 10.7019 -0.453518 8.48938ZM8.44128 8.67538C7.08531 9.04589 5.83884 9.3939 4.68687 10.2729C3.3699 11.2794 2.60491 12.6834 1.56244 13.936C1.94343 10.6524 3.59339 7.83087 6.93082 6.86186C8.45178 6.42085 9.83475 6.04435 11.0917 5.01083C12.2722 4.04031 12.9817 2.7173 13.9432 1.55778C13.5457 4.89383 11.8522 7.73937 8.44128 8.67538Z" clip-rule="evenodd" fill="#000000" fill-opacity="1.000000" fill-rule="evenodd"/>
</svg>
