<svg width="30" height="25" fill="none" xmlns="http://www.w3.org/2000/svg"><path d="M30 2.95c-1.11.51-2.29.85-3.54 1A6.322 6.322 0 0 0 29.17.46a12.41 12.41 0 0 1-3.91 1.53A6.052 6.052 0 0 0 20.77 0c-3.98 0-6.9 3.8-6 7.74-5.11-.26-9.65-2.77-12.69-6.59C.47 3.99 1.25 7.7 3.99 9.58a6.142 6.142 0 0 1-2.79-.79c-.07 2.92 1.98 5.66 4.94 6.26-.87.25-1.82.3-2.78.11.78 2.51 3.05 4.33 5.75 4.38A12.143 12.143 0 0 1 0 22.16C2.72 23.95 5.95 25 9.43 25c11.43 0 17.88-9.9 17.49-18.78 1.21-.89 2.25-2 3.08-3.27Z" fill="#333"/></svg>