<svg width="36.000000" height="35.000000" viewBox="0 0 36 35" fill="none" xmlns="http://www.w3.org/2000/svg" xmlns:xlink="http://www.w3.org/1999/xlink">
	<desc>
			Created with Pixso.
	</desc>
	<defs/>
	<path id="Vector" d="M27.88 6.99C28.15 8.14 28.23 9.24 28.13 10.29C28.03 11.34 27.76 12.32 27.34 13.21C26.92 14.08 26.36 14.88 25.67 15.55C25.01 16.21 24.23 16.75 23.39 17.16L23.47 17.49C23.93 17.48 24.42 17.58 24.92 17.78C25.42 17.98 25.89 18.22 26.35 18.5C26.76 18.76 27.16 19.04 27.53 19.36C27.87 19.65 28.11 19.88 28.25 20.05L31.1 24.02C31.62 24.67 32.24 25.11 32.97 25.35C33.69 25.58 34.52 25.47 35.45 25.01C35.33 25.61 35.09 26.15 34.73 26.62C34.37 27.1 33.93 27.51 33.43 27.84C32.92 28.18 32.37 28.47 31.8 28.71C31.22 28.95 30.67 29.13 30.17 29.25C28.61 29.62 27.26 29.71 26.11 29.53C24.96 29.34 23.9 28.64 22.94 27.42L18.78 21.94C18.39 21.43 17.86 21.03 17.19 20.75C16.52 20.47 15.89 20.4 15.28 20.55L17 27.82L20.46 30.74L6.6 34.03L8.38 29.87L2.83 6.37L-0.63 3.45L12.33 0.38C14.2 -0.07 16 -0.26 17.73 -0.2C19.45 -0.13 21.01 0.18 22.4 0.74C23.79 1.3 24.96 2.12 25.92 3.17C26.87 4.22 27.53 5.49 27.88 6.99ZM19.03 9.35C18.74 8.1 18.29 7.13 17.71 6.42C17.13 5.72 16.48 5.21 15.77 4.89C15.05 4.57 14.32 4.43 13.58 4.45C12.83 4.48 12.16 4.61 11.58 4.85L14.23 16.05C15.04 16.06 15.79 15.92 16.47 15.64C17.15 15.37 17.75 14.93 18.21 14.37C18.68 13.81 19 13.11 19.17 12.27C19.34 11.44 19.29 10.46 19.03 9.35L19.03 9.35Z" fill="#FFFFFF" fill-opacity="1.000000" fill-rule="nonzero"/>
</svg>
