<svg width="79.000000" height="87.000000" viewBox="0 0 79 87" fill="none" xmlns="http://www.w3.org/2000/svg" xmlns:xlink="http://www.w3.org/1999/xlink">
	<desc>
			Created with Pixso.
	</desc>
	<defs/>
	<path id="Vector" d="M29.67 22.13L27.43 17.81L7.81 28.06L5.8 32.16L-0.83 19.38L3.69 20.12L23.31 9.87L21.07 5.55L15.16 4.15L24.1 -0.52L36.37 23.12L27.43 27.8L29.67 22.13ZM76.3 48.44C76.29 50.15 75.98 51.62 75.36 52.86C74.73 54.11 74.08 55.07 73.39 55.76C73.23 55.92 73.03 56 72.8 56C72.64 56 72.51 55.94 72.41 55.83C72.31 55.71 72.3 55.54 72.36 55.31C72.46 55.05 72.57 54.73 72.68 54.35C72.8 53.97 72.86 53.64 72.86 53.35C72.86 53.02 72.79 52.74 72.66 52.51C72.53 52.28 72.24 52.2 71.78 52.26C70.77 52.38 69.94 52.06 69.29 51.29C68.64 50.52 68.31 49.56 68.32 48.41C68.32 47.36 68.7 46.45 69.45 45.68C70.2 44.92 71.15 44.53 72.29 44.54C72.88 44.54 73.42 44.65 73.91 44.87C74.38 45.07 74.81 45.36 75.18 45.73C75.53 46.08 75.81 46.5 76.01 46.96C76.2 47.43 76.3 47.92 76.3 48.44ZM77.87 81.63C78.65 83.56 77.75 85.69 75.79 86.48C73.85 87.27 71.69 86.38 70.92 84.45C70.16 82.56 71.1 80.42 73.03 79.63C75 78.84 77.11 79.74 77.87 81.63L77.87 81.63ZM71.79 84.1C72.4 85.61 74 86.36 75.52 85.74C77.01 85.14 77.62 83.5 77.02 82C76.41 80.49 74.82 79.71 73.31 80.32C71.81 80.93 71.19 82.61 71.79 84.1ZM74.59 85.03L73.81 85.35L72.43 81.95C72.72 81.76 73.14 81.55 73.69 81.32C74.34 81.06 74.66 81.05 74.97 81.09C75.21 81.16 75.47 81.38 75.6 81.71C75.75 82.08 75.58 82.49 75.22 82.78L75.24 82.82C75.62 82.81 75.9 82.98 76.19 83.4C76.5 83.88 76.65 84.06 76.78 84.15L75.94 84.49C75.78 84.41 75.59 84.12 75.33 83.77C75.12 83.42 74.85 83.34 74.42 83.52L74.05 83.67L74.6 85.03L74.59 85.03ZM73.83 83.1L74.2 82.95C74.64 82.77 74.93 82.48 74.79 82.13C74.66 81.82 74.35 81.71 73.86 81.91C73.71 81.96 73.57 82.04 73.44 82.12L73.83 83.1Z" fill="#FFFFFF" fill-opacity="1.000000" fill-rule="nonzero"/>
</svg>
