<svg width="370.000000" height="370.000000" viewBox="0 0 370 370" fill="none" xmlns="http://www.w3.org/2000/svg" xmlns:xlink="http://www.w3.org/1999/xlink">
	<desc>
			Created with Pixso.
	</desc>
	<defs/>
	<path id="Vector" d="M286.61 128.49C274.13 124.52 261.12 123.58 248.19 122.19C252.31 121.28 256.77 120.07 260.96 119.6C264.83 119.18 267.12 120.77 270.76 122.03C277.25 124.3 284.49 127.05 290.13 129.68C288.97 129.27 287.79 128.87 286.61 128.49ZM268.83 133.46C255.14 130.9 241.13 130.34 227.46 127.67C230.84 126.63 232.77 125.73 236.37 126.07C241.72 126.58 247.14 127.68 252.37 128.84C259.97 130.53 267.63 132.36 275.03 134.75C272.97 134.28 270.91 133.85 268.83 133.46ZM269.49 136.13C268.56 136.51 265.27 135.22 264.21 135C265.23 135.19 268.89 136.37 269.49 136.13ZM242.23 135.85C231.52 135.18 220.68 134.84 209.95 134.9C211.87 134.18 213.71 133.28 215.59 132.43C220.72 130.13 221.61 130.5 226.74 132.01C233.35 133.96 240.12 135.07 246.9 136.2C245.34 136.06 243.79 135.94 242.23 135.85L242.23 135.85ZM229.73 142.03C214.94 143.15 200.35 144.94 185.59 146.59C188.74 145.32 191.77 143.7 194.78 142.14C199.43 139.72 203 140.06 208.18 140.06C213.68 140.06 219.09 140.7 224.56 141.33C225.91 141.48 231.19 141.91 229.73 142.03ZM206.94 130.79C214.84 123.12 223.9 115.98 233.18 110C239.07 106.21 245.47 101.93 252.4 105.22C240.95 105.69 225.99 116.08 219.22 124.98C218.89 125.4 218.39 125.69 218.06 126.1C216.78 127.65 218.17 127.81 217.3 128.76C217.2 128.88 212.58 130.76 213.19 130.51C210.05 131.81 206.84 132.89 203.7 134.17C204.76 133.02 205.84 131.9 206.94 130.79L206.94 130.79ZM250.99 112.42C243.22 118.92 234.79 122.38 225.43 125.64C233.97 120.14 242.55 115.64 251.94 111.7C251.63 111.94 251.31 112.18 250.99 112.42L250.99 112.42ZM260.66 114.65C262.28 114.13 263.01 114.26 263.37 116.19C259.18 116.03 257.19 116.6 253.24 117.56C255.64 116.42 258.12 115.44 260.66 114.65ZM265.8 115.7C265.51 115.17 265.38 114.16 265.18 113.64C268.29 113.59 270.93 114.25 273.57 115.88C272.69 115.89 266.01 116.66 265.8 115.7L265.8 115.7ZM139.77 187.85C162.49 185.04 184.28 184.31 207.1 186.53C189.91 188.04 172.64 191.49 155.73 194.85C142.14 197.54 128.37 198.99 114.75 201.43C117.28 198.8 119.64 196.02 122.21 193.43C126.67 188.93 133.36 188.65 139.77 187.85ZM217.88 194.54C221.99 194.12 226.08 193.61 230.16 193.01C234.59 192.36 241.67 189.43 246.13 190.31C221.77 197.55 195.44 200.88 170.39 204.96C159.98 206.65 149.38 209.13 139.29 212.27C124.73 216.81 108.31 216.78 94.41 223.15C98.66 218.7 103.32 212.33 108.16 208.71C111.68 206.07 117.52 205.85 121.7 205.3C128.6 204.39 135.52 203.68 142.44 202.94C167.59 200.23 192.71 197.17 217.88 194.54ZM90.47 218.66C88.43 220.91 86.44 223.21 84.51 225.56C88.01 209.1 87.86 191.74 89.83 175.03C90.95 165.58 92 156.03 93.5 146.64C94.83 138.35 95.19 127.06 99.63 119.9C102.95 122.98 105.4 126.25 104.74 130.73C103.89 136.49 101.41 142.02 100.26 147.73C98.96 154.15 98.09 160.68 97.28 167.18C96.05 177.17 95.76 187.34 96.29 197.39C96.43 200.21 96.62 203.04 96.84 205.85C96.93 207.09 97.57 209.18 97.3 210.33C96.64 213.16 92.61 216.29 90.47 218.66ZM114.98 150.13C116.92 140.88 118.11 130.14 122.16 121.47C124.41 116.65 126.57 114.93 129.93 120.14C132.33 123.85 128.56 132 127.38 136.67C124.01 149.92 122.23 163.51 120 176.97C119.42 180.5 119.25 183.99 118.87 187.53C118.56 190.46 118.64 190.28 116.95 192.49C115.87 193.91 114.16 195.12 112.85 196.37C109.42 199.65 105.94 202.88 102.55 206.2C107.71 187.73 111.04 168.88 114.98 150.13ZM369 192.14C365.87 187.98 361.9 184.23 357.84 181.01C352.22 176.55 345.33 173.94 339.71 169.66C334.99 166.05 331.09 161.24 326.26 157.59C318.6 151.78 310.7 146.96 301.73 143.47C313.16 147.37 324.13 152.07 333.29 160.17C334.06 160.85 340.77 169.44 342.16 168.62C343.11 168.07 339.08 161.85 338.25 160.4C332.06 149.75 319.35 142.94 309.31 136.1C297.98 128.38 285.6 124.05 272.68 119.78C284.42 120.43 294.3 123.44 304.13 130.04C308.97 133.29 313.44 137.08 318.43 140.09C322.84 142.77 327.09 145.23 330.9 148.82C335.17 152.83 338.6 157.21 341.44 162.35C342.5 164.28 347.7 175.97 347.84 168.55C347.91 164.89 343.29 159.67 341.42 157.03C338.27 152.57 334.61 148.56 330.78 144.68C324.26 138.08 318.04 131.24 310.31 126.04C305.91 123.08 301.31 120.73 296.27 119.04C292.39 117.73 288.4 116.79 284.32 116.33C280.45 115.89 280.08 115.94 277 113.94C274.35 112.22 272.09 110.38 269.12 109.15C266.1 107.9 263.54 107.72 261.29 106.01C258.64 103.99 257.61 101.62 254.19 100.36C251.05 99.2 247.83 99.45 244.55 99.71C233.7 100.58 222.69 103.33 213.72 109.75C205.79 115.42 200.39 124.47 196.56 133.29C194.44 138.16 195.88 137.98 190.19 140.78C184.22 143.72 178.28 146.61 172.46 149.9C182.05 137.98 190.38 124.79 200.89 113.62C206.51 107.65 212.03 101.59 217.65 95.63C219.3 93.87 232.41 81.22 225.05 81.67C223.35 81.77 220.79 84.04 219.22 84.79C216.1 86.29 213 87.62 210.12 89.57C205.12 92.97 201.04 97.19 196.95 101.58C186.35 112.96 176.8 125.12 171.92 140.06C170.76 143.59 170.34 147.57 168.52 150.82C167.24 153.11 165.74 153.89 163.15 155.59C158.7 158.48 154.38 161.45 150.16 164.69C160.94 148.73 167.89 130.88 176.37 113.7C187.29 91.61 192.29 66.82 201.47 44C203.25 39.57 205.42 34.7 208.41 30.93C209.32 29.79 212.19 28.07 212.44 26.63C213.11 22.81 210.53 23.84 208.63 24.93C203.98 27.62 199.47 33.67 196.3 37.76C191.68 43.7 187 50.14 183 56.53C169.22 78.57 160.08 103.58 152.48 128.32C148.91 139.96 145.23 151.78 143.47 163.85C142.62 169.67 143.59 169.83 138.72 173.82C133.64 177.98 128.78 182.4 123.74 186.61C128.33 177.17 131.07 165.47 134.39 155.46C137.86 144.97 141.81 134.64 145.34 124.17C151.08 107.13 155.37 89.68 159.5 72.2C161.7 62.9 163.76 53.6 165.64 44.24C168.06 32.21 170.52 18.31 175.91 7.22C176.71 5.57 179.98 -2.1 175.25 0.54C173.09 1.75 170.52 9.65 169.41 11.78C163.15 23.88 157.87 36.16 153.16 48.94C144.8 71.6 138.94 94.81 132.31 117.98C129 113.46 122.13 108.48 116.19 110.41C110.86 112.13 108.23 119.73 106.56 124.48C106.37 121.19 102.33 115.06 99.18 114.85C97.4 114.73 94.31 116.42 92.82 117.13C89.12 118.88 84.92 121.09 82.61 124.53C77.89 131.59 78.78 142.67 77.94 150.83C75.44 175.2 75.89 198.72 78.65 222.99C79.28 228.54 80.04 231.11 76.88 235.49C73.27 240.49 69.79 245.41 66.24 250.1C67.38 247.93 66.35 241.28 66.33 238.96C66.3 232.75 66.36 226.6 66.68 220.39C67.35 207.61 66.66 194.4 66.02 181.62C64.69 155.27 64.81 129.25 65.7 102.91C65.88 97.36 65.76 91.85 65.73 86.3C65.71 84.01 66.47 78.4 62.83 79.74C61.78 80.13 61 84.22 60.69 85.26C57.86 94.84 56.97 105.2 55.67 115.04C54.49 123.98 53.41 132.95 52.67 141.94C51.23 159.21 51.7 175.98 51.79 193.28C51.86 207.53 53.41 223.02 56.04 236.17C57.28 242.33 59.43 249 60.05 255.21C60.43 258.95 58.24 260.34 55.73 263.74C53.18 267.17 50.67 270.64 48.24 274.16C48.47 268.76 46.94 263.19 46.58 257.79C46.27 253.28 45.99 248.8 45.58 244.3C45.26 240.75 44.96 237.2 44.64 233.65C43.02 215.38 41.44 197.15 38.45 179.05C33.86 151.26 28.84 122.69 29.03 94.41C29.07 89.02 29.24 83.62 29.3 78.23C29.35 74.16 28.97 70.12 28.95 66.06C28.94 63.99 29.88 59.98 29.19 57.91C27.19 51.94 25.46 58.62 25.4 61.36C25.38 62.81 25.29 64.25 25.27 65.69C25.13 74.77 24.35 83.73 23.9 92.79C23.26 105.87 23.83 118.88 24.27 131.95C24.74 146.19 24.39 160.52 25.92 174.71C27.89 192.99 31.84 211.17 34.33 229.4C35.4 237.35 36.91 245.2 37.73 253.18C38.49 260.63 41.14 267.96 42.75 274.85L42.74 274.32C43.36 277.25 44.34 278.72 43.45 281.4C42.83 283.29 41.11 285.27 40.07 287.01C37.88 290.7 35.77 294.43 33.66 298.16C35.53 288.68 32.99 276.71 30.98 267.39C28.77 257.07 26.06 246.51 22.9 236.45C20.44 228.63 18.4 220.95 17.66 212.8C16.67 201.96 13.72 191.54 12.13 180.79C10.64 170.65 8.12 160.61 5.97 150.57C5.49 148.31 3.33 137.5 -0.18 142.38C-1.05 143.58 0.01 146.78 0.15 148.02C0.48 151.1 0.69 154.13 0.83 157.22C1.73 176.85 5.84 196.78 9.06 216.12C11.12 228.48 13.3 240.88 16.31 253.05C18.65 262.52 19.92 272.36 22.52 281.69C23.76 286.17 25.03 290.75 27.02 294.96C28.76 298.62 30.5 299.64 29.89 303.58C29.02 309.22 24.22 315.07 22.05 320.53C20.28 324.99 18.47 329.46 16.78 333.96C14.42 340.26 12.21 346.66 10.15 353.06C8.95 356.76 6.62 361.54 6.4 365.31C6.07 371.03 9.3 369.39 11.01 365.57C12.15 362.99 13.06 360.22 14.14 357.6C22.03 338.41 29.26 317.83 41.05 300.61C45.97 293.42 59.57 291.69 67.54 289.18C86.73 283.14 107.49 282.35 127.4 280.14C143.45 278.37 159.24 276.73 174.96 272.78C177.26 272.21 219.15 259.87 218.1 257.72C218.68 258.93 172.27 269.26 168.55 269.57C156.89 270.51 145.27 270.77 133.59 271.26C104.37 272.5 75.62 273.2 49.07 287.01C52.42 281.74 56.43 271.79 62.31 269.75C73.65 265.81 85.59 263.27 97.01 259.43C108.89 255.44 121.08 252.77 133.02 249.08C144.95 245.39 156.85 241.57 168.96 238.46C181.13 235.35 193.7 232.09 206.35 232.5C211.22 232.65 216.1 233.08 220.95 233.54C222.78 233.71 237.35 236.41 229.47 233.06C224.37 230.89 217.69 230.73 212.22 229.93C205.96 229.02 199.95 228.21 193.61 228.26C179.82 228.37 165.96 231.6 152.63 234.8C136.67 238.63 120.06 242.43 104.83 248.59C90.87 254.23 76.83 259.65 62.87 265.23C65.41 261.34 68.11 257.57 70.75 253.75C72.04 251.9 73.39 248.88 75.21 247.62C77.99 245.68 83.84 245.18 87.07 244.1C100.06 239.78 113.11 234.71 126.42 231.5C147.82 226.33 169.74 223.12 191.27 218.52C203.84 215.84 217.15 213.48 230 213.71C234.83 213.79 239.67 213.62 244.42 214.64C246.1 215 248.21 215.93 249.94 216.12C255.12 216.7 251.28 214.22 248.14 213.13C223.26 204.51 195.84 211.4 170.76 214.91C154.17 217.22 137.8 219.58 121.97 225.29C107.37 230.54 93.42 237.55 78.59 242.17C82.48 236.64 85.94 230.92 92.16 227.88C99.03 224.52 106.28 223.06 113.78 221.78C129.37 219.13 144.87 215.72 160.51 213.41C174.89 211.29 189.24 209.4 203.49 206.5C217.36 203.68 231.15 202.03 244.39 196.69C248.59 195 253.67 192.06 258.14 191.81C263.95 191.48 270.97 193.22 276.66 194.08C290.52 196.17 304.9 198.33 317.71 204.2C330.28 209.95 338.81 219 348.43 228.46C351.46 231.44 354.45 234.47 357.47 237.47C358.14 238.13 362.16 243.14 362.99 243.21C368.11 243.59 358.44 233.43 356.78 231.35C345.25 216.97 332.77 204.98 315.82 197.14C301.36 190.46 286.26 186.12 270.5 183.9C270.54 181.05 282.15 180.91 282.47 177.96C282.89 174.02 274.76 177.96 273.15 178.44C270.09 179.36 267.12 180.51 264.05 181.38C256.99 183.37 249.18 180.92 242.02 180C233.38 178.89 224.62 178.17 215.93 177.64C187.16 175.91 159.56 176.86 131.61 184.57C136.63 180.18 141.86 176.01 147.16 171.96C149.22 170.39 150.79 168.95 153.13 168.21C157.08 166.96 161.77 167.52 165.88 167.12C182.15 165.53 198.35 163.75 214.71 163.25C241.64 162.42 269.72 167.25 295.25 175.81C307.71 179.99 319.93 184.05 330.75 191.74C333.25 193.52 335.48 195.56 337.76 197.62C338.7 198.47 344.44 204.64 344.73 204.61C347.22 204.35 335.67 191.56 333.99 189.93C311.43 168 282.16 163.01 252.26 158.61C221 154 189.63 156.45 158.83 163.4C164.98 159.56 171.02 152.99 177.93 150.75C183.17 149.06 189.83 149.38 195.13 148.84C210.52 147.25 226.65 149.94 242.07 151.03C259.49 152.27 276.42 154.5 293.26 159.14C301.88 161.52 310.27 164.03 318.68 167.11C325.34 169.56 330.78 171.06 336.17 175.53C338.35 177.35 344.82 182.18 348.32 185.46C349.74 186.8 351.22 189.63 352.84 190.3C358.85 192.81 350.87 183.02 349.56 181.32C354.34 184.17 358.8 187.48 363.04 191C363.88 191.7 364.69 192.23 365.54 192.87C366.53 193.62 367.06 195.81 368.76 195.08C370.15 194.48 369.66 193.05 369 192.14Z" fill="#012A32" fill-opacity="1.000000" fill-rule="evenodd"/>
</svg>
