<svg width="106.000000" height="51.000000" viewBox="0 0 106 51" fill="none" xmlns="http://www.w3.org/2000/svg" xmlns:xlink="http://www.w3.org/1999/xlink">
	<desc>
			Created with Pixso.
	</desc>
	<defs/>
	<path id="Vector" d="M85.02 50.15L86.11 46.04L77.76 25.02L74.16 22.78L94.83 14.52L98.03 22.57L93.77 20.45L86.06 23.53L88.63 30L93.06 28.23L95.47 25.83L98.15 32.6L94.76 32.51L90.33 34.29L93.13 41.35L100.85 38.27L102.48 33.8L105.7 41.89L85.02 50.15ZM53.53 3.41L51.7 11.26L58.44 12.85L59.52 8.23L58.95 4.83L66 6.5L63.99 9.29L62.91 13.91L71.98 16.06L75.86 14.37L72.83 27.38L70.1 24.13L48.16 18.94L44.28 20.63L49.29 -0.86L57.69 1.12L53.53 3.41ZM18.16 9.97L11.43 15.29L16.01 21.13L19.97 17.99L21.74 14.78L26.53 20.88L23 21.86L19.04 24.99L25.2 32.83L29.56 34.02L18.4 42.84L18.27 38.31L3.39 19.34L-0.97 18.15L17.44 3.58L23.14 10.85L18.16 9.97Z" fill="#FFFFFF" fill-opacity="1.000000" fill-rule="nonzero"/>
</svg>
