<svg width="44.000000" height="64.000000" viewBox="0 0 44 64" fill="none" xmlns="http://www.w3.org/2000/svg" xmlns:xlink="http://www.w3.org/1999/xlink">
	<desc>
			Created with Pixso.
	</desc>
	<defs/>
	<path id="Vector" d="M18.42 38.1L10.4 38.42L10.68 45.37L15.4 45.18L18.51 43.72L18.81 51L15.59 49.79L10.87 49.98L11.25 59.33L13.91 62.64L0.62 63.17L3 59.66L2.08 37.05L-0.58 33.74L21.38 32.86L21.74 41.52L18.42 38.1ZM42.54 23.4L39.31 20.65L16.83 19.19L13.28 21.5L14.69 -0.8L23.3 -0.24L19.58 2.7L19.05 11.03L25.97 11.48L26.27 6.69L25.14 3.48L32.37 3.95L30.85 6.99L30.54 11.78L38.1 12.27L38.62 3.94L35.29 0.53L43.95 1.1L42.54 23.4Z" fill="#FFFFFF" fill-opacity="1.000000" fill-rule="nonzero"/>
</svg>
