<svg width="118.000000" height="97.000000" viewBox="0 0 118 97" fill="none" xmlns="http://www.w3.org/2000/svg" xmlns:xlink="http://www.w3.org/1999/xlink">
	<desc>
			Created with Pixso.
	</desc>
	<defs/>
	<path id="Vector" d="M102.28 22.6L97.6 23.87L103.4 45.33L106.96 48.18L93.12 51.94L94.8 47.66L89 26.21L84.32 27.48L81.7 32.98L79.06 23.2L104.66 16.24L107.31 26.02L102.28 22.6ZM11.28 3.22L28.6 9.06C30.34 9.64 31.72 10.45 32.76 11.47C33.79 12.49 34.54 13.6 35 14.79C35.47 15.99 35.69 17.2 35.68 18.42C35.67 19.64 35.5 20.73 35.18 21.7L34.31 24.31C33.79 25.86 33.12 27.24 32.29 28.45C31.45 29.66 30.45 30.63 29.28 31.35C28.11 32.08 26.76 32.51 25.24 32.63C23.71 32.76 22.02 32.51 20.16 31.88L3.6 26.29L-0.69 27.7L3.95 13.76L6.53 17.48L23.48 23.2C24.59 23.57 25.55 23.77 26.35 23.8C27.15 23.83 27.83 23.71 28.38 23.45C28.92 23.19 29.39 22.8 29.72 22.29C30.06 21.79 30.35 21.18 30.59 20.46C30.8 19.81 30.92 19.18 30.93 18.58C30.94 17.99 30.8 17.41 30.52 16.89C30.23 16.36 29.77 15.87 29.15 15.42C28.53 14.96 27.7 14.56 26.68 14.22L9.54 8.44L5.26 9.84L8.69 -0.46L11.28 3.22L11.28 3.22ZM117.61 91.49C118 92.46 118 93.45 117.6 94.47C117.19 95.48 116.5 96.19 115.5 96.59C115.02 96.79 114.51 96.88 114 96.85C113.49 96.84 113 96.72 112.54 96.52C112.08 96.31 111.66 96.02 111.3 95.67C110.93 95.31 110.63 94.88 110.44 94.4C110.25 93.92 110.16 93.4 110.18 92.89C110.2 92.38 110.3 91.88 110.48 91.41C110.67 90.94 110.95 90.52 111.3 90.15C111.65 89.78 112.08 89.49 112.56 89.29C113.04 89.1 113.55 89.01 114.06 89.03C114.57 89.05 115.07 89.16 115.54 89.36C116.01 89.56 116.43 89.85 116.78 90.21C117.14 90.58 117.42 91.01 117.61 91.49L117.61 91.49Z" fill="#FFFFFF" fill-opacity="1.000000" fill-rule="nonzero"/>
</svg>
