<svg width="131.000000" height="70.000000" viewBox="0 0 131 70" fill="none" xmlns="http://www.w3.org/2000/svg" xmlns:xlink="http://www.w3.org/1999/xlink">
	<desc>
			Created with Pixso.
	</desc>
	<defs/>
	<path id="Vector" d="M26.49 33.49C26.14 34.66 25.72 35.79 25.17 36.89C24.46 38.31 23.71 39.71 22.84 41.03C22.35 41.78 21.95 42.6 21.46 43.36C20.98 44.1 20.43 44.77 19.84 45.42C18.81 46.59 17.71 47.7 16.34 48.47C14.9 49.28 13.72 49.35 11.72 49.29C10.35 49.07 8.72 48.62 8 47.27C7.13 45.63 7.21 43.65 7.51 41.87C7.73 40.57 8 39.25 8.53 38.04C9.21 36.51 9.96 35.04 10.81 33.6C12.39 30.92 14.1 28.27 16.31 26.06C17.51 24.85 18.92 23.89 20.42 23.09C21.16 22.69 21.93 22.31 22.78 22.21C23.14 22.16 23.53 22.14 23.88 22.26C24.09 22.32 24.36 22.43 24.54 22.54C24.6 22.57 25.33 23.09 25.48 23.23C25.65 23.4 25.8 23.74 25.92 23.95C26.12 24.34 26.26 24.71 26.41 25.12C26.71 25.91 26.81 26.74 26.91 27.58C27.02 28.55 26.96 29.55 26.93 30.52C26.89 31.52 26.75 32.52 26.49 33.49ZM26.9 47.52C28.23 46.28 29.37 44.9 30.48 43.47C31.45 42.22 32.35 40.98 33.03 39.55C33.46 38.67 33.9 37.75 34.24 36.84C34.57 35.96 34.76 35.04 34.91 34.12C35.2 32.36 35.12 30.54 34.61 28.83C34.31 27.88 33.97 26.95 33.59 26.03C33.25 25.22 32.79 24.48 32.28 23.76C31.83 23.13 31.31 22.55 30.73 22.03C30.07 21.43 29.44 20.9 28.68 20.43C27.92 19.96 27.11 19.37 26.26 19.06C25.45 18.77 24.6 18.52 23.76 18.37C22.83 18.21 21.89 18.15 20.95 18.19C20.5 18.21 19.99 18.23 19.55 18.26C19.08 18.28 18.62 18.36 18.16 18.45C16.32 18.83 14.48 19.56 12.82 20.43C12 20.86 11.06 21.3 10.3 21.82C9.55 22.34 8.86 22.76 8.09 23.27C6.66 24.22 5.36 25.38 4.22 26.66C3.2 27.8 2.33 28.83 1.63 30.07C1.12 30.99 0.81 31.93 0.49 32.87C0.2 33.77 -0.01 34.69 -0.14 35.63C-0.37 37.3 -0.54 38.95 -0.5 40.63C-0.48 41.59 -0.27 42.6 -0.09 43.54C0.06 44.37 0.36 45.16 0.74 45.92C1.13 46.69 1.58 47.48 2.15 48.14C2.78 48.88 3.51 49.48 4.3 50.04C5.03 50.57 5.81 51.08 6.62 51.47C7.04 51.68 7.75 51.98 8.21 52.11C8.59 52.23 9.91 52.62 10.33 52.72C10.84 52.84 11.48 52.98 11.99 53.06C12.98 53.21 13.79 53.19 14.78 53.06C15.75 52.94 16.69 52.71 17.62 52.43C18.09 52.28 18.54 52.11 19.01 51.96C19.43 51.82 19.86 51.7 20.26 51.52C20.58 51.38 20.94 51.22 21.27 51.1C21.72 50.94 22.11 50.74 22.53 50.53C23.39 50.12 24.19 49.6 24.96 49.05C25.63 48.57 26.3 48.08 26.9 47.52ZM90.6 34.28C91.12 34.45 91.5 34.66 91.83 35.1C92.15 35.53 92.38 36 92.33 36.55C92.22 37.68 91.91 38.85 91.58 39.93C91.43 40.43 91.22 40.88 91.03 41.36C90.95 41.54 90.88 41.74 90.98 41.93C91.08 42.11 91.28 42.17 91.46 42.09C91.86 41.92 92.16 41.33 92.4 40.99C92.52 40.81 94.56 37.8 95.26 36.78C95.65 36.23 96.05 35.69 96.47 35.16C96.71 34.85 97.02 34.54 97.16 34.16C97.33 33.67 97.12 33.15 96.71 32.87C96.03 32.41 92.26 31.97 91.26 31.82C90.38 31.69 86.6 31.03 85.58 30.85C84.53 30.66 83.49 30.41 82.43 30.27C81.34 30.12 80.26 29.92 79.16 29.75C78.03 29.58 76.9 29.39 75.77 29.15C75.28 29.04 74.8 28.95 74.3 28.92C74.08 28.91 73.33 28.9 73.18 29.1C72.7 29.74 74.13 29.91 74.27 30.33C74.36 30.63 74.07 31.17 73.95 31.46C73.77 31.89 73.61 32.34 73.36 32.76C72.88 33.59 72.45 34.46 71.93 35.27C71.51 35.92 71.07 36.56 70.7 37.23C70.53 37.53 70.37 37.83 70.21 38.13C70.22 38.12 70.23 38.12 70.24 38.11C69.81 38.76 69.47 39.47 69.05 40.14C68.58 40.9 68.06 41.63 67.59 42.4C66.95 43.46 66.34 44.53 65.75 45.62C65.38 46.32 65.03 47.02 64.68 47.73C64.33 48.43 63.92 49.11 63.57 49.82C63.09 50.78 60.6 55.22 59.77 56.44C59.37 57.03 59.03 57.66 58.59 58.23C58.03 58.96 57.26 59.32 56.41 59.61C56.15 59.7 55.86 59.75 55.62 59.92C55.29 60.16 55.28 60.56 55.61 60.79C55.92 61 56.32 61.06 56.67 61.13C57.02 61.21 57.37 61.28 57.71 61.36C58.6 61.56 66.24 62.62 66.57 62.65C66.76 62.67 66.96 62.72 67.15 62.75C67.4 62.79 67.68 62.83 67.92 62.73C68.28 62.56 68.36 62.13 68.15 61.81C67.97 61.53 67.66 61.37 67.45 61.12C67.17 60.79 67.13 60.36 67.23 59.95C67.3 59.61 75.2 45.72 75.23 45.65C75.25 45.54 75.3 45.52 75.39 45.59C75.6 45.59 75.87 45.74 76.06 45.8C76.24 45.86 76.42 45.92 76.6 45.97C76.89 46.06 77.18 46.14 77.47 46.23C77.95 46.36 78.46 46.46 78.91 46.68C79.23 46.84 79.53 47.1 79.54 47.48C79.54 47.85 79.45 48.21 79.41 48.57C79.38 48.9 79.03 50.25 79.62 50.21C80 50.18 80.32 49.56 80.48 49.27C80.66 48.95 80.85 48.64 81.03 48.31C81.86 46.78 82.93 45.39 83.73 43.83C83.85 43.6 84.26 43 84.08 42.74C83.87 42.42 83.4 42.95 83.23 43.09C82.59 43.67 81.94 44.3 81.18 44.7C80.81 44.89 80.4 45.05 79.99 45.12C79.63 45.18 79.3 45.07 78.95 44.98C78.57 44.88 78.18 44.78 77.8 44.68C77.21 44.53 76.65 44.34 76.07 44.16C76.47 43.55 78.18 40.39 78.34 40.07C78.84 39.08 79.44 38.13 80 37.18C80.34 36.6 80.64 35.99 80.94 35.39C81.19 34.91 81.44 34.36 81.77 33.93L81.74 33.95C81.92 33.68 82.16 33.17 82.44 33C82.7 32.85 83.08 32.81 83.38 32.79C83.77 32.76 84.15 32.77 84.54 32.83C84.92 32.89 85.29 33.02 85.67 33.1C86.5 33.27 87.31 33.41 88.13 33.63C88.95 33.85 89.78 34.04 90.6 34.28L90.6 34.28ZM62.08 28.11C62.74 28.34 63.33 28.8 63.81 29.3C64.06 29.56 64.3 29.86 64.45 30.19C64.54 30.39 64.58 30.49 64.53 30.71L64.5 30.86C64.37 31.44 63.42 33.8 63.24 34.06C62.96 34.45 62.31 35.2 62.87 35.64C63.41 36.08 63.97 35.34 64.26 34.95C64.91 34.07 65.45 33.09 66.06 32.18C66.27 31.86 66.46 31.51 66.72 31.21C66.89 31.01 67.05 30.8 67.21 30.59C67.55 30.15 67.83 29.66 68.19 29.23C68.53 28.83 69.27 28.16 69.06 27.57C68.88 27.05 68.23 26.94 67.77 26.87C67.22 26.78 66.66 26.78 66.11 26.67C65.55 26.57 64.99 26.5 64.42 26.42C63.65 26.31 62.88 26.24 62.12 26.09C61.74 26.01 61.36 25.94 60.99 25.86C58.98 25.46 56.94 25.21 54.93 24.84C52.78 24.44 50.6 24.21 48.47 23.71C47.33 23.44 46.08 23.03 44.9 23.13C44.64 23.15 44.26 23.2 44.29 23.55C44.32 23.83 44.63 23.92 44.78 24.11C45.04 24.46 45.27 25 45.24 25.43C45.21 25.91 45.16 26.37 44.93 26.8C44.73 27.18 44.52 27.55 44.31 27.91C43.87 28.66 43.45 29.41 43 30.14C42.45 31.01 41.95 31.92 41.38 32.78C40.61 33.96 39.81 35.1 39.1 36.32C37.82 38.48 36.53 40.63 35.21 42.77C34.68 43.64 28.82 52.85 28.2 53.49C27.69 54.02 27 53.99 26.34 54.17C26.08 54.25 25.74 54.34 25.68 54.66C25.61 55.03 25.98 55.16 26.26 55.23C26.66 55.33 27.07 55.36 27.48 55.43C28.13 55.54 35.94 57.13 36.47 57.24C36.96 57.35 37.82 57.6 38.15 57.48C38.4 57.39 38.5 57.13 38.42 56.88C38.34 56.61 38.09 56.47 37.88 56.33C37.7 56.21 37.51 56.1 37.41 55.89C37.23 55.53 37.26 55.07 37.36 54.69C37.52 54.11 37.79 53.52 38.09 52.99C38.43 52.4 38.76 51.8 39.13 51.22C39.47 50.66 40.35 49.21 40.4 49.14C40.47 49.04 40.87 48.43 41 48.24C41.73 47.18 42.39 46.08 43.1 45C43.55 44.3 44.93 42.34 45.15 42.04C45.5 41.55 45.81 40.89 46.37 40.61C46.54 40.52 46.84 40.27 47.02 40.24C47.2 40.21 47.51 40.34 47.69 40.38C47.96 40.43 48.22 40.48 48.49 40.53C48.93 40.61 49.37 40.72 49.81 40.8C49.99 40.84 50.17 40.87 50.35 40.91L50.59 40.96C50.71 40.98 51.13 40.99 51.2 41.08C51.26 41.15 51.22 41.44 51.22 41.55C51.21 41.7 51.19 41.84 51.14 41.98C51.03 42.31 50.84 42.58 50.69 42.88C50.53 43.17 49.9 44.31 50.6 44.31C51.19 44.31 51.85 43.58 52.2 43.17C52.51 42.81 52.8 42.43 53.08 42.04C53.42 41.54 53.75 41.04 54.06 40.52C54.45 39.88 54.91 39.23 55.09 38.49C55.2 38.02 55.18 37.1 54.51 37.61C53.97 38.01 53.64 38.66 53.06 39.02L53.11 39C52.77 39.19 52.46 39.42 52.13 39.63L52.16 39.62C52.08 39.66 52 39.71 51.92 39.75C51.7 39.86 51.4 39.84 51.16 39.83C50.84 39.81 50.51 39.72 50.19 39.67C49.37 39.53 48.3 39.47 47.8 38.72C47.76 38.66 47.73 38.61 47.69 38.55C47.6 38.42 47.57 38.39 47.62 38.25C47.71 37.99 47.93 37.72 48.07 37.48C48.26 37.15 48.46 36.81 48.63 36.46C49 35.75 49.36 35.04 49.74 34.33C50.72 32.5 51.74 30.67 53.04 29.05C53.58 28.38 54.13 27.72 54.69 27.06C54.82 26.91 54.87 26.81 55.05 26.8C55.15 26.79 55.25 26.81 55.35 26.81C55.84 26.83 56.31 26.84 56.79 26.92C58.39 27.18 59.97 27.54 61.54 27.95L61.48 27.93C61.68 27.99 61.88 28.05 62.08 28.11L62.08 28.11ZM111.47 59.96C111.49 59.82 111.43 59.69 111.28 59.65C111.16 59.63 110.74 59.04 109.97 60.06C109.24 61.01 104.85 63.97 103.57 64.6C102.83 64.97 102.07 65.29 101.3 65.57C100.6 65.82 99.91 66.02 99.15 66C98.46 65.97 97.77 65.86 97.09 65.75C96.23 65.6 94.56 65.34 94.59 65.33C94.25 65.2 93.7 65.09 93.4 64.77C93.27 64.63 93.29 64.19 93.29 64.01C93.29 63.22 93.84 62.48 94.12 61.76C94.35 61.17 94.68 60.63 94.97 60.07C95.36 59.31 99.03 53.38 99.27 52.93C99.51 52.46 99.79 52.01 100.06 51.56C100.13 51.43 100.19 51.25 100.31 51.21C100.44 51.18 100.66 51.24 100.8 51.25C101.32 51.28 101.84 51.35 102.36 51.43C102.82 51.49 103.28 51.6 103.72 51.72C103.91 51.77 104.09 51.8 104.21 51.93C104.37 52.09 104.42 52.3 104.41 52.52C104.38 53 104.17 53.52 104.02 53.98C103.9 54.34 103.75 54.68 103.63 55.03C103.51 55.36 103.26 55.82 103.43 56.17C103.6 56.53 104.01 56.47 104.28 56.27C104.87 55.83 105.26 55.01 105.64 54.39C106.1 53.66 106.58 52.93 107.04 52.2C107.81 51 108.75 49.87 109.36 48.58C109.49 48.3 109.78 47.74 109.62 47.42C109.43 47.05 108.95 47.37 108.72 47.52C107.92 48.06 107.38 48.88 106.67 49.51C106.32 49.82 105.88 50.1 105.42 50.21C104.95 50.31 104.48 50.21 104.02 50.11C103.42 49.98 102.82 49.88 102.22 49.77C101.89 49.71 101.56 49.66 101.22 49.62C102.02 48.48 105.6 43.6 106.6 42.27C107.05 41.67 107.46 41.05 107.91 40.46C108.39 39.85 108.83 39.18 109.34 38.6C109.61 38.3 110.39 37.45 110.63 37.33C110.72 37.27 111.33 37.3 111.44 37.28C111.6 37.27 111.83 37.34 111.98 37.37C112.8 37.5 113.62 37.62 114.44 37.77C115.24 37.91 116.03 38.11 116.8 38.36C117.81 38.69 118.98 39.2 119.37 40.28C119.54 40.76 119.54 41.25 119.54 41.75C119.54 42.28 119.49 42.8 119.32 43.31C119.06 44.12 118.76 44.92 118.55 45.75C118.45 46.14 117.67 47.84 118.56 47.81C119.07 47.79 119.39 47.11 119.68 46.78C119.99 46.42 120.23 46 120.45 45.57C120.87 44.74 121.46 43.99 121.99 43.22C122.43 42.61 122.82 41.95 123.21 41.31C123.66 40.59 124.12 39.83 124.35 39.01C124.46 38.59 124.57 38.04 124.22 37.7C123.92 37.42 121.58 37.14 120.84 37.02C120.02 36.88 119.21 36.73 118.38 36.61C118.05 36.56 110.64 35.25 109.65 35.05C108.77 34.87 103.5 33.67 103.06 33.52C102.84 33.45 102.37 33.21 102.22 33.54C102.18 33.63 102.16 33.73 102.17 33.83C102.18 33.85 102.22 33.99 102.26 34.04C102.38 34.23 102.58 34.62 102.6 34.75C102.64 34.98 102.65 35.21 102.63 35.44C102.6 35.81 102.41 36.01 102.19 36.29C101.76 36.84 101.33 37.38 100.92 37.94C99.99 39.2 99.15 40.51 98.27 41.8C97.32 43.21 96.26 44.55 95.33 45.96C94.63 47.02 94.01 48.13 93.4 49.23C92.94 50.06 92.39 50.81 91.88 51.6C91.47 52.23 91.08 52.88 90.71 53.54C90.27 54.31 89.81 55.08 89.23 55.77C88.87 56.21 85.92 61.08 85.61 61.7C85.46 62 85.3 62.3 85.13 62.58C84.94 62.89 84.77 63.34 84.43 63.49C83.96 63.69 83.49 63.88 83.02 64.05C82.74 64.16 82.42 64.23 82.21 64.46C81.92 64.78 82.03 65.2 82.41 65.36C83.02 65.63 83.78 65.63 84.44 65.7C85.14 65.77 85.82 65.9 86.5 66.03C87.76 66.28 96.78 67.79 98.37 67.98C99.06 68.07 99.75 68.15 100.44 68.3C101.16 68.45 101.89 68.52 102.61 68.72C103.53 68.97 104.47 69.18 105.41 69.35C105.76 69.42 106.08 69.38 106.39 69.19C106.7 69 107.29 67.89 107.43 67.62C107.62 67.24 108.68 65 109.1 64.31C109.58 63.51 111.43 60.24 111.47 59.96ZM37.11 4.62C36.6 6.03 35.21 6.96 33.75 7.21C33.23 7.3 32.75 7.24 32.23 7.2C31.81 7.16 31.38 7.2 30.97 7.15C30.53 7.09 30.1 7.02 29.66 6.99C30.43 6.04 31.09 4.98 31.8 3.99C32.39 3.16 32.97 2.24 33.79 1.62C34.14 1.35 34.71 1.05 35.16 1.12C35.69 1.19 36.13 1.32 36.56 1.62C37.01 1.93 37.29 2.31 37.36 2.86C37.44 3.46 37.29 4.05 37.11 4.62ZM33.37 10.28C33.09 11.06 32.72 11.82 32.28 12.52C31.81 13.28 31.11 13.93 30.26 14.21C29.44 14.47 28.47 14.56 27.62 14.49C26.86 14.42 26.13 14.19 25.38 14.07C26.04 12.72 26.82 11.39 27.63 10.12C28.05 9.47 28.39 8.76 28.82 8.13C28.92 7.98 28.99 7.8 29.15 7.77C29.27 7.75 29.47 7.82 29.59 7.84C30.13 7.92 30.66 7.99 31.2 8.05C31.75 8.11 32.5 8.1 32.92 8.5C33.43 8.99 33.55 9.61 33.37 10.28ZM41 3.75C40.96 3.45 40.91 3.14 40.77 2.88C40.62 2.61 40.46 2.35 40.28 2.1C39.91 1.59 39.27 1.32 38.69 1.11C37.95 0.85 34.24 0.19 33.73 0.1C33.16 -0.01 32.59 -0.13 32.02 -0.22C31.27 -0.35 30.52 -0.51 29.77 -0.6C29.47 -0.64 28.36 -0.92 28.7 -0.34C28.72 -0.3 28.77 -0.26 28.8 -0.2C28.84 -0.12 28.86 -0.02 28.89 0.06C28.94 0.19 28.99 0.31 29.03 0.43C29.15 0.73 29.2 0.89 29.04 1.19C28.77 1.7 28.35 2.15 28.01 2.61C27.79 2.89 27.57 3.17 27.36 3.45C26.99 3.93 26.63 4.42 26.3 4.93C25.75 5.76 25.13 6.54 24.58 7.36C23.98 8.25 23.41 9.18 22.78 10.05C22.25 10.78 21.67 11.49 21.13 12.23C20.95 12.48 20.78 12.76 20.61 13.02C20.32 13.48 19.8 13.52 19.34 13.73C19.15 13.82 19.1 14.05 19.3 14.16C19.4 14.22 19.6 14.23 19.72 14.25C20.14 14.32 20.57 14.35 21 14.41L21.36 14.46C21.41 14.47 21.48 14.47 21.52 14.48C21.62 14.53 23.06 14.78 23.32 14.83C23.55 14.87 25.34 15.15 25.57 15.19C25.86 15.24 26.14 15.29 26.43 15.36C27.3 15.56 28.16 15.79 29.05 15.93C30.32 16.13 31.63 16.43 32.93 16.39C33.45 16.36 33.98 16.3 34.49 16.19C34.77 16.14 35.03 16.05 35.26 15.88C35.35 15.8 35.58 15.68 35.65 15.59C35.72 15.5 36.1 15.05 36.25 14.89C36.44 14.68 36.54 14.41 36.69 14.18C36.91 13.82 37.07 13.4 37.21 13.01C37.66 11.75 37.89 10.43 37.14 9.23C36.84 8.75 36.43 8.43 35.92 8.18C36.31 8.17 36.74 8.05 37.11 7.95C37.8 7.76 38.47 7.42 39.07 7.02C40.12 6.33 41.19 5.1 41 3.75L41 3.75ZM59.59 4.66C59.76 4.56 59.91 4.37 59.85 4.17C59.79 3.96 59.57 3.98 59.38 3.94C58.89 3.82 57.5 3.6 57.38 3.57C57.12 3.48 56.74 3.44 56.48 3.37C56.07 3.25 55.51 3.12 55.08 3.23C54.72 3.33 54.63 3.65 54.9 3.94C55.22 4.29 55.8 4.32 56.16 4.62C56.7 5.06 55.94 6.05 55.71 6.52C55.47 7.01 52.93 11.04 52.32 11.92C51.75 12.73 51.23 13.55 50.56 14.27C49.87 15.04 49.1 15.72 48.2 16.24C47.4 16.7 46.31 17.2 45.38 16.81C45.16 16.72 44.96 16.58 44.79 16.42C44.72 16.35 44.64 16.27 44.57 16.2C44.49 16.12 44.37 15.38 44.41 15.24C44.47 15.01 44.54 14.78 44.62 14.55C44.88 13.72 45.33 12.75 45.71 11.9C46.11 11.02 46.52 10.15 46.97 9.3C47.55 8.18 48.2 7.1 48.82 6.01C49.01 5.68 49.23 5.37 49.44 5.05C49.65 4.72 49.86 4.32 50.2 4.12C50.6 3.88 52.32 3.8 51.86 2.97C51.69 2.68 51.32 2.64 51.03 2.57C50.77 2.51 50.5 2.47 50.23 2.41C49.38 2.2 48.51 2.11 47.66 1.95C47.04 1.84 46.45 1.69 45.81 1.61C45.6 1.58 44.99 1.42 44.92 1.76C44.91 1.85 44.95 1.91 44.94 2C44.93 2.08 45.25 2.48 45.39 2.61C45.45 2.67 45.63 2.85 45.66 2.88C45.71 2.93 45.74 3.04 45.76 3.1C45.8 3.26 45.77 3.28 45.68 3.44L45.71 3.4C45.09 4.33 44.51 5.29 43.98 6.27C43.66 6.87 43.36 7.49 43.03 8.08C42.78 8.54 42.5 8.97 42.27 9.44C41.72 10.52 41.17 11.65 40.72 12.79C40.48 13.41 40.27 14.09 40.35 14.77C40.43 15.43 40.77 15.99 41.27 16.43C41.7 16.8 42.18 17.08 42.69 17.33C43.02 17.48 43.35 17.56 43.68 17.71C43.93 17.83 44.71 18.03 44.84 18.04C45.01 18.05 45.18 18.09 45.36 18.1C45.71 18.12 46.1 18.19 46.45 18.15C47.13 18.08 47.8 18.03 48.43 17.76C50.46 16.89 52.78 14.09 54.04 11.68C54.43 10.93 54.84 10.2 55.23 9.46C55.63 8.73 56.11 8.04 56.47 7.29C56.62 6.97 56.78 6.64 56.93 6.31L57.19 5.77C57.26 5.64 57.42 5.26 57.53 5.17C57.72 5.02 58.12 5.08 58.36 5.04C58.79 4.96 59.21 4.87 59.59 4.66L59.59 4.66ZM77.71 7.96C77.55 7.54 76.77 7.52 76.41 7.45C75.82 7.33 75.24 7.21 74.65 7.12C74.12 7.04 73.61 6.96 73.09 6.84C72.68 6.74 72.29 6.64 71.88 6.56C70.28 6.25 68.64 6.12 67.04 5.81C66.63 5.73 66.22 5.66 65.82 5.58C65.03 5.42 64.25 5.37 63.46 5.28C62.96 5.22 62.46 5.15 61.96 5.09C61.75 5.07 61.54 5.01 61.34 5.09C61.14 5.17 60.93 5.34 60.77 5.49C60.57 5.67 60.41 5.86 60.25 6.09C60.09 6.32 59.85 6.49 59.67 6.72C59.45 7 59.09 7.65 59.67 7.77C59.97 7.83 60.29 7.58 60.54 7.44C60.77 7.29 61 7.14 61.23 6.98C61.79 6.61 62.3 6.26 62.98 6.21C63.61 6.17 64.26 6.27 64.87 6.38C65.17 6.43 65.46 6.49 65.75 6.54C65.91 6.56 66.54 6.57 66.61 6.7C66.51 7.13 66.07 7.55 65.79 7.89C65.43 8.32 65.09 8.77 64.77 9.23C64.12 10.14 63.49 11.06 62.87 11.99C62.29 12.86 61.72 13.75 61.17 14.65C60.97 14.98 60.75 15.31 60.54 15.64C60.36 15.94 59.07 17.89 58.62 18.57C58.32 19.02 57.95 19.39 57.43 19.56C57.05 19.68 56.57 19.67 56.28 19.99C55.85 20.44 56.34 20.81 56.78 20.91C57.31 21.02 57.88 21.04 58.42 21.09C59.36 21.17 60.3 21.29 61.22 21.47C61.9 21.6 62.58 21.76 63.26 21.88C63.63 21.95 63.99 22.06 64.36 22.12C64.88 22.19 65.32 21.85 65.08 21.3C64.94 20.98 64.51 20.72 64.43 20.39C64.33 20.01 64.61 19.59 64.78 19.28C65.05 18.82 65.34 18.38 65.62 17.93C66.37 16.76 67.09 15.58 67.87 14.44C68.87 12.99 69.92 11.57 70.86 10.08C71.11 9.68 71.38 9.28 71.67 8.9C71.85 8.68 72.03 8.46 72.21 8.24C72.3 8.14 72.46 7.84 72.59 7.79C72.64 7.76 72.72 7.8 72.78 7.81C73.08 7.88 73.38 7.94 73.67 8.01C74.13 8.11 74.58 8.21 75.05 8.28C75.31 8.31 75.56 8.37 75.81 8.46C76.02 8.54 76.06 8.62 76.07 8.84C76.08 9.27 75.84 9.7 75.78 10.13C75.72 10.6 76.12 10.97 76.41 10.47C76.67 10.04 76.95 9.6 77.21 9.16C77.39 8.86 77.86 8.34 77.71 7.96ZM101.22 12.42C101.31 12.65 101.36 12.88 101.38 13.13C101.4 13.35 101.35 13.67 101.5 13.85C101.86 14.27 102.27 13.53 102.45 13.3C102.71 12.99 103.34 12.41 103.23 11.96C103.17 11.72 102.96 11.71 102.76 11.66C102.48 11.6 102.22 11.51 101.95 11.43C100.8 11.14 90.01 9.47 88.9 9.31C88.7 9.28 88.5 9.25 88.29 9.21C88.25 9.21 88.16 9.2 88.12 9.18C88.07 9.16 87.55 9.1 87.42 9.14C87.22 9.2 87.05 9.25 87.01 9.49C86.96 9.76 87.17 9.98 87.37 10.12C87.48 10.19 87.81 10.29 87.84 10.4C87.89 10.55 87.66 10.93 87.6 11.05C87.46 11.34 87.33 11.63 87.21 11.92C86.42 13.83 85.29 15.58 84.25 17.35C83.95 17.86 83.71 18.39 83.41 18.89C83.11 19.37 82.82 19.86 82.53 20.34C82.27 20.77 82.02 21.2 81.73 21.6C81.57 21.82 81.04 22.71 80.86 22.93C80.66 23.19 80.5 23.26 80.19 23.33C79.94 23.39 79.69 23.45 79.46 23.55C79.04 23.75 78.79 24.21 79.32 24.44C79.78 24.64 80.31 24.71 80.79 24.84C81.13 24.94 85.93 25.56 85.96 25.58C86.16 25.7 86.41 25.65 86.5 25.42C86.66 25.06 86.31 24.77 86.05 24.59C85.89 24.49 85.77 24.45 85.76 24.27C85.76 24.06 86.02 23.71 86.12 23.53C86.37 23.06 86.63 22.6 86.89 22.14C87.26 21.49 87.64 20.86 88.03 20.23C88.45 19.55 88.86 18.87 89.27 18.19C89.38 18.01 89.49 17.84 89.6 17.66C89.64 17.6 89.71 17.43 89.78 17.39C89.88 17.33 90.08 17.4 90.21 17.42C90.82 17.52 91.43 17.6 92.03 17.7C92.58 17.79 93.12 17.87 93.67 17.94C94.04 18 93.45 18.8 93.76 18.93C94.07 19.08 94.33 18.66 94.51 18.47C94.72 18.25 95.75 16.92 95.22 16.87C94.9 16.84 94.71 17.18 94.01 17.13C93.62 17.1 93.33 17.04 92.94 16.99C92.06 16.88 91.21 16.66 90.35 16.42C90.66 15.95 90.98 15.48 91.28 15L91.24 15.04C91.77 14.27 92.25 13.45 92.76 12.67C93.15 12.08 93.67 10.95 94.48 10.94C94.76 10.94 97.4 11.27 97.94 11.39C98.53 11.51 101.07 11.96 101.12 12.03C101.16 12.07 101.19 12.35 101.22 12.42ZM112.71 15.7C113.22 15.03 114.15 15.2 114.87 14.96C115.13 14.87 115.47 14.71 115.53 14.42C115.57 14.25 115.5 14.11 115.39 13.99C115.34 13.95 115.25 13.86 115.17 13.85C115.08 13.84 114.63 13.8 114.47 13.76C114.28 13.71 110.77 13.24 109.89 13.12C109.07 13 106.6 12.49 106.14 12.49C106.02 12.5 105.67 12.4 105.51 12.49C105.44 12.56 105.41 12.63 105.43 12.59C105.38 12.66 105.37 12.7 105.38 12.8C105.39 12.86 105.45 12.94 105.5 12.98C105.69 13.18 105.86 13.37 106.07 13.55C106.33 13.78 106.51 13.88 106.46 14.27C106.41 14.68 106.2 15.08 106.02 15.44C105.41 16.61 102.64 21.21 101.89 22.4C101.56 22.93 100.02 25.61 99.69 25.92C99.81 25.8 99.6 25.98 99.55 26.01C99.43 26.08 99.31 26.14 99.19 26.19C98.88 26.34 98.56 26.44 98.23 26.56C97.94 26.67 96.81 27 97.31 27.51C97.52 27.73 100.51 28.15 101.17 28.32C101.81 28.49 105.43 29.01 105.73 29.07C105.97 29.12 106.23 29.21 106.42 29C106.86 28.53 106.08 28.2 105.79 28C105.75 27.96 105.65 27.91 105.61 27.86C105.54 27.76 105.54 27.77 105.58 27.64C105.61 27.56 105.63 27.48 105.67 27.4C105.76 27.14 105.89 26.9 106.02 26.66C106.3 26.15 106.56 25.63 106.86 25.13L106.83 25.16C107.38 24.35 109.03 21.45 109.38 20.85C109.89 19.99 110.38 19.11 110.95 18.29C111.54 17.44 112.07 16.52 112.71 15.7L112.71 15.7ZM120.59 20.67C121.23 19.71 121.75 18.69 122.43 17.75C122.71 17.36 122.95 16.95 123.22 16.55C123.3 16.43 123.38 16.3 123.48 16.17C123.53 16.11 123.71 15.87 123.79 15.83C123.99 15.76 124.22 15.8 124.76 16.02C125.27 16.19 125.85 16.53 126.1 17.04C126.36 17.56 126.25 18.23 126.09 18.77C125.98 19.16 125.75 19.47 125.52 19.8C125.21 20.22 124.9 20.62 124.52 20.98C124.3 21.2 124.06 21.4 123.82 21.6C123.71 21.69 123.59 21.79 123.47 21.88C123.41 21.94 123.17 22.17 123.09 22.17C122.96 22.16 122.66 21.84 122.53 21.76C122.37 21.65 122.17 21.5 122 21.42C121.47 21.18 120.98 21.04 120.47 20.86C120.51 20.8 120.55 20.73 120.59 20.67ZM128.23 30.96C128.26 30.79 128.23 30.56 128.04 30.51C127.85 30.45 127.67 30.66 127.57 30.8C127.32 31.16 127.31 31.58 126.88 31.81C126.55 31.99 125.99 32.04 125.63 32C125.2 31.95 124.94 31.48 124.79 31.08C124.19 29.55 124.63 28.1 124.59 26.53C124.56 25.33 124.19 24.2 123.67 23.14C124.47 23.06 125.26 22.91 126.02 22.64C126.76 22.38 127.52 22.19 128.22 21.82C129.37 21.22 130.31 20.31 130.57 18.99L130.58 18.9C130.54 19.14 130.6 18.8 130.6 18.78C130.61 18.71 130.61 18.64 130.61 18.57C130.61 18.4 130.6 18.23 130.56 18.06C130.48 17.66 130.33 17.28 130.13 16.93C129.75 16.3 129.09 15.96 128.42 15.71C128.21 15.63 128 15.55 127.77 15.52C127.65 15.5 126.99 15.39 126.78 15.34C126.05 15.18 118.18 13.92 118.11 13.89C117.96 13.84 117.81 13.88 117.65 13.92C117.34 14 117.41 14.25 117.67 14.38C117.92 14.51 118.21 14.57 118.47 14.7C118.62 14.77 118.77 14.78 118.76 14.95C118.75 15.06 118.64 15.22 118.59 15.33C118.47 15.62 118.32 15.89 118.16 16.17C117.7 17 117.18 17.8 116.68 18.59C116.24 19.27 114.76 21.67 114.44 22.18C114.14 22.66 111.92 26.47 111.46 27.21C111.32 27.44 111.17 27.67 111.01 27.89C110.87 28.07 110.7 28.23 110.52 28.37C110.39 28.46 110.31 28.48 110.16 28.56C110.01 28.63 109.68 28.77 109.7 28.95C109.71 29.05 109.79 29.07 109.86 29.11C109.98 29.15 110.15 29.19 110.28 29.22C110.53 29.29 110.79 29.32 111.05 29.36C111.53 29.43 113.75 29.9 114.38 30.05C114.7 30.13 115.96 30.4 116.07 29.98C116.14 29.71 115.83 29.58 115.71 29.39C115.54 29.14 115.51 28.9 115.58 28.6C115.7 28.04 116.11 27.56 116.39 27.07C117.37 25.35 118.53 23.71 119.67 22.1C119.7 22.06 119.73 22.01 119.76 21.97C119.89 21.78 119.89 21.75 120.06 21.89C120.34 22.1 120.59 22.4 120.71 22.73C120.98 23.47 120.82 24.31 120.77 25.08C120.72 25.89 120.71 26.71 120.71 27.53C120.71 28.3 120.6 29.08 120.65 29.86C120.7 30.63 120.9 31.4 121.38 32.02C121.81 32.58 122.44 32.98 123.08 33.27C123.8 33.59 124.53 33.63 125.31 33.49C125.99 33.37 126.79 33.15 127.33 32.68C127.87 32.21 128.1 31.63 128.23 30.96L128.23 30.96Z" fill="#000000" fill-opacity="1.000000" fill-rule="evenodd"/>
</svg>
