<svg width="94.000000" height="48.000000" viewBox="0 0 94 48" fill="none" xmlns="http://www.w3.org/2000/svg" xmlns:xlink="http://www.w3.org/1999/xlink">
	<desc>
			Created with Pixso.
	</desc>
	<defs/>
	<path id="Vector" d="M93.63 21.51C93.89 23.23 93.77 24.75 93.25 26.08C92.72 27.4 91.96 28.55 90.95 29.52C89.94 30.49 88.78 31.26 87.45 31.85C86.12 32.44 84.79 32.83 83.47 33.04C82.37 33.21 81.35 33.31 80.4 33.34C79.52 33.37 78.65 33.38 77.78 33.37C76.98 33.36 76.24 33.35 75.57 33.34C74.89 33.33 74.29 33.36 73.78 33.44C73.55 33.48 73.31 33.6 73.06 33.8C72.82 34.01 72.61 34.23 72.45 34.49L70.26 20.25C70.72 21.52 71.38 22.7 72.21 23.76C73.05 24.84 73.98 25.76 74.99 26.54C76 27.31 77.03 27.9 78.08 28.3C79.14 28.7 80.13 28.83 81.06 28.68C81.66 28.59 82.24 28.46 82.81 28.29C83.36 28.12 83.85 27.91 84.27 27.64C84.69 27.38 85.01 27.05 85.23 26.65C85.45 26.25 85.52 25.78 85.43 25.23C85.3 24.35 84.95 23.58 84.38 22.92C83.82 22.27 83.1 21.71 82.22 21.24C81.34 20.78 80.33 20.39 79.19 20.07C77.99 19.73 76.77 19.46 75.54 19.24C73.61 18.88 71.9 18.06 70.44 16.79C68.97 15.53 68.05 13.68 67.67 11.25C67.46 9.89 67.58 8.61 68.02 7.42C68.47 6.22 69.16 5.13 70.1 4.16C71.04 3.19 72.19 2.37 73.56 1.71C74.92 1.05 76.43 0.6 78.08 0.34C79.79 0.08 81.37 0.02 82.82 0.15C84.28 0.29 85.51 0.29 86.51 0.13C86.74 0.1 86.98 -0.02 87.22 -0.23C87.47 -0.43 87.66 -0.66 87.79 -0.91L89.59 10.75C89.17 9.79 88.57 8.91 87.77 8.13C86.98 7.34 86.08 6.67 85.11 6.12C84.16 5.59 83.14 5.19 82.08 4.95C81.04 4.71 80.06 4.66 79.16 4.8C78 4.98 77.01 5.37 76.19 5.96C75.37 6.55 75.03 7.25 75.15 8.06C75.25 8.68 75.66 9.17 76.37 9.56C77.09 9.95 77.98 10.3 79.04 10.62C80.09 10.93 81.26 11.25 82.53 11.57C83.79 11.88 85.02 12.28 86.23 12.76C88.31 13.6 89.97 14.7 91.22 16.05C92.47 17.39 93.27 19.21 93.63 21.51ZM33.34 26.81C34.74 30.3 34.62 33.4 32.97 36.11C31.31 38.82 28.29 41.06 23.9 42.83L11.33 47.93L12.47 43.55L3.45 21.16L-0.4 18.8L11.4 14.01C12.55 13.55 13.81 13.11 15.19 12.69C16.57 12.27 17.9 12.02 19.19 11.94C20.48 11.86 21.64 12.01 22.67 12.39C23.7 12.77 24.44 13.52 24.9 14.64C25.13 15.2 25.23 15.8 25.19 16.41C25.15 17 25.01 17.59 24.77 18.14C24.53 18.71 24.2 19.23 23.79 19.7C23.38 20.18 22.9 20.61 22.38 20.97L22.45 21.15C23.02 20.99 23.81 20.93 24.81 20.99C25.82 21.04 26.86 21.27 27.94 21.68C29.03 22.09 30.06 22.71 31.04 23.53C32.02 24.34 32.78 25.44 33.34 26.81ZM16.63 18.88C16.46 18.46 16.19 18.13 15.84 17.9C15.48 17.67 15.08 17.53 14.63 17.46C14.18 17.4 13.71 17.43 13.22 17.56C12.73 17.69 12.25 17.88 11.79 18.14L13.68 22.83C14.8 22.45 15.65 21.9 16.24 21.19C16.83 20.47 16.96 19.71 16.63 18.88ZM24.93 30.58C24.6 29.75 24.12 28.98 23.52 28.32C22.92 27.64 22.19 27.1 21.37 26.72C20.55 26.34 19.64 26.17 18.62 26.19C17.61 26.21 16.53 26.51 15.39 27.08L20.64 40.12C21.85 39.63 22.83 39.02 23.58 38.29C24.32 37.56 24.85 36.78 25.16 35.93C25.46 35.08 25.59 34.18 25.54 33.28C25.49 32.35 25.28 31.44 24.93 30.58Z" fill="#FFFFFF" fill-opacity="1.000000" fill-rule="nonzero"/>
</svg>
