<svg width="30.000000" height="31.000000" viewBox="0 0 30 31" fill="none" xmlns="http://www.w3.org/2000/svg" xmlns:xlink="http://www.w3.org/1999/xlink">
	<desc>
			Created with Pixso.
	</desc>
	<defs/>
	<path id="Vector" d="M27.42 11.54C29.02 13.43 29.83 15.55 29.84 17.9C29.85 20.25 28.98 22.71 27.23 25.27C26.29 26.65 25.09 27.85 23.71 28.79C22.32 29.75 20.76 30.39 19.04 30.71C17.32 31.03 15.46 30.96 13.47 30.51C11.48 30.05 9.41 29.08 7.27 27.6C5.43 26.33 3.91 24.88 2.71 23.23C1.52 21.59 0.68 19.84 0.22 17.99C-0.25 16.15 -0.3 14.25 0.04 12.31C0.38 10.37 1.19 8.46 2.47 6.58C2.89 5.97 3.32 5.43 3.77 4.96C4.2 4.52 4.64 4.09 5.1 3.67C5.53 3.28 5.93 2.92 6.28 2.59C6.64 2.26 6.93 1.93 7.15 1.6C7.34 1.32 7.49 0.97 7.59 0.55C7.69 0.14 7.69 -0.19 7.6 -0.44L17.55 6.42C16.68 6.07 15.69 5.81 14.62 5.62C13.57 5.44 12.51 5.38 11.45 5.45C10.44 5.52 9.45 5.75 8.52 6.14C7.61 6.54 6.88 7.13 6.35 7.91C5.83 8.66 5.54 9.54 5.5 10.46C5.45 11.39 5.66 12.39 6.14 13.44C6.61 14.49 7.35 15.57 8.37 16.68C9.39 17.8 10.71 18.91 12.33 20.03C13.69 20.96 15.04 21.71 16.36 22.24C17.68 22.78 18.91 23.1 20.05 23.19C21.19 23.29 22.23 23.16 23.16 22.8C24.09 22.44 24.86 21.81 25.47 20.93C26.44 19.51 26.93 18.1 26.94 16.69C26.95 15.28 26.48 13.79 25.53 12.2L27.42 11.54Z" fill="#FFFFFF" fill-opacity="1.000000" fill-rule="nonzero"/>
</svg>
